<?xml version="1.0" encoding="UTF-8" standalone="no"?>
<!DOCTYPE svg PUBLIC "-//W3C//DTD SVG 1.0//EN" "http://www.w3.org/TR/2001/PR-SVG-20010719/DTD/svg10.dtd">
<svg width="46cm" height="29cm" viewBox="87 49 911 579" xmlns="http://www.w3.org/2000/svg" xmlns:xlink="http://www.w3.org/1999/xlink">
  <g>
    <path style="fill: #0096d4" d="M 240.924 189.194 L 240.924,254.057 L 279.145,254.057 L 279.145,189.194 L 240.924,189.194z"/>
    <path style="fill: none; fill-opacity:0; stroke-width: 0.02; stroke: #aae6ff" d="M 240.924 189.194 L 240.924,254.057 L 279.145,254.057 L 279.145,189.194 L 240.924,189.194"/>
    <path style="fill: #00b4ff" d="M 240.924 189.194 L 246.127,184 L 284.339,184 L 279.145,189.194 L 240.924,189.194z"/>
    <path style="fill: none; fill-opacity:0; stroke-width: 0.02; stroke: #aae6ff" d="M 240.924 189.194 L 246.127,184 L 284.339,184 L 279.145,189.194 L 240.924,189.194"/>
    <path style="fill: #2ac0ff" d="M 243.298 192.987 L 260.753,192.987 L 260.753,201.51 L 243.298,201.51 L 243.298,192.987z"/>
    <path style="fill: none; fill-opacity:0; stroke-width: 0.02; stroke: #005a80" d="M 243.298 192.987 L 260.735,192.987 L 260.735,201.501 L 243.298,201.501 L 243.298,192.987"/>
    <path style="fill: none; fill-opacity:0; stroke-width: 0.6; stroke: #aae6ff" d="M 246.127 197.253 L 257.451,197.253"/>
    <path style="fill: #005a80" d="M 279.145 254.057 L 284.339,248.863 L 284.339,184 L 279.145,189.194 L 279.145,254.057z"/>
    <path style="fill: none; fill-opacity:0; stroke-width: 0.02; stroke: #aae6ff" d="M 279.145 254.057 L 284.339,248.863 L 284.339,184 L 279.145,189.194 L 279.145,254.057"/>
    <path style="fill: none; fill-opacity:0; stroke-width: 0.6; stroke: #aae6ff" d="M 241.87 249.8 L 278.681,249.8"/>
    <path style="fill: none; fill-opacity:0; stroke-width: 0.6; stroke: #aae6ff" d="M 241.87 215.263 L 278.681,215.263"/>
    <path style="fill: none; fill-opacity:0; stroke-width: 0.6; stroke: #005a80" d="M 241.406 249.336 L 278.681,249.336"/>
    <path style="fill: none; fill-opacity:0; stroke-width: 0.6; stroke: #005a80" d="M 241.406 214.763 L 278.681,214.763"/>
    <path style="fill: none; fill-opacity:0; stroke-width: 0.02; stroke: #aae6ff" d="M 243.298 201.055 L 243.298,192.987 L 260.271,192.987"/>
    <path style="fill: #ffffff" d="M 261.699 234.655 L 257.451,234.655 L 257.451,239.385 L 254.613,239.385 L 259.807,244.606 L 264.528,239.385 L 261.699,239.385 L 261.699,234.655z"/>
    <path style="fill: none; fill-opacity:0; stroke-width: 0.02; stroke: #003c55" d="M 261.699 234.655 L 257.451,234.655 L 257.451,239.385 L 254.613,239.385 L 259.807,244.606 L 264.528,239.385 L 261.699,239.385 L 261.699,234.655"/>
    <path style="fill: #ffffff" d="M 257.451 230.389 L 261.699,230.389 L 261.699,224.714 L 264.528,224.714 L 259.343,219.52 L 254.613,224.714 L 257.451,224.714 L 257.451,230.389z"/>
    <path style="fill: none; fill-opacity:0; stroke-width: 0.02; stroke: #003c55" d="M 257.451 230.389 L 261.699,230.389 L 261.699,224.714 L 264.528,224.714 L 259.343,219.52 L 254.613,224.714 L 257.451,224.714 L 257.451,230.389"/>
    <path style="fill: #ffffff" d="M 243.298 230.389 L 243.298,234.655 L 251.775,234.655 L 251.775,237.493 L 256.969,232.773 L 252.267,227.551 L 252.267,230.389 L 243.298,230.389z"/>
    <path style="fill: none; fill-opacity:0; stroke-width: 0.02; stroke: #003c55" d="M 243.298 230.389 L 243.298,234.655 L 251.775,234.655 L 251.775,237.493 L 256.969,232.773 L 252.267,227.551 L 252.267,230.389 L 243.298,230.389"/>
    <path style="fill: #ffffff" d="M 275.852 234.192 L 275.852,230.389 L 266.884,230.389 L 266.884,227.088 L 261.699,232.281 L 266.884,237.493 L 266.884,234.192 L 275.852,234.192z"/>
    <path style="fill: none; fill-opacity:0; stroke-width: 0.02; stroke: #003c55" d="M 275.852 234.192 L 275.852,230.389 L 266.884,230.389 L 266.884,227.088 L 261.699,232.281 L 266.884,237.493 L 266.884,234.192 L 275.852,234.192"/>
  </g>
  <g>
    <path style="fill: #0096d4" d="M 240.924 284.418 L 240.924,349.281 L 279.145,349.281 L 279.145,284.418 L 240.924,284.418z"/>
    <path style="fill: none; fill-opacity:0; stroke-width: 0.02; stroke: #aae6ff" d="M 240.924 284.418 L 240.924,349.281 L 279.145,349.281 L 279.145,284.418 L 240.924,284.418"/>
    <path style="fill: #00b4ff" d="M 240.924 284.418 L 246.127,279.224 L 284.339,279.224 L 279.145,284.418 L 240.924,284.418z"/>
    <path style="fill: none; fill-opacity:0; stroke-width: 0.02; stroke: #aae6ff" d="M 240.924 284.418 L 246.127,279.224 L 284.339,279.224 L 279.145,284.418 L 240.924,284.418"/>
    <path style="fill: #2ac0ff" d="M 243.298 288.211 L 260.753,288.211 L 260.753,296.734 L 243.298,296.734 L 243.298,288.211z"/>
    <path style="fill: none; fill-opacity:0; stroke-width: 0.02; stroke: #005a80" d="M 243.298 288.211 L 260.735,288.211 L 260.735,296.725 L 243.298,296.725 L 243.298,288.211"/>
    <path style="fill: none; fill-opacity:0; stroke-width: 0.6; stroke: #aae6ff" d="M 246.127 292.477 L 257.451,292.477"/>
    <path style="fill: #005a80" d="M 279.145 349.281 L 284.339,344.087 L 284.339,279.224 L 279.145,284.418 L 279.145,349.281z"/>
    <path style="fill: none; fill-opacity:0; stroke-width: 0.02; stroke: #aae6ff" d="M 279.145 349.281 L 284.339,344.087 L 284.339,279.224 L 279.145,284.418 L 279.145,349.281"/>
    <path style="fill: none; fill-opacity:0; stroke-width: 0.6; stroke: #aae6ff" d="M 241.87 345.024 L 278.681,345.024"/>
    <path style="fill: none; fill-opacity:0; stroke-width: 0.6; stroke: #aae6ff" d="M 241.87 310.487 L 278.681,310.487"/>
    <path style="fill: none; fill-opacity:0; stroke-width: 0.6; stroke: #005a80" d="M 241.406 344.56 L 278.681,344.56"/>
    <path style="fill: none; fill-opacity:0; stroke-width: 0.6; stroke: #005a80" d="M 241.406 309.987 L 278.681,309.987"/>
    <path style="fill: none; fill-opacity:0; stroke-width: 0.02; stroke: #aae6ff" d="M 243.298 296.279 L 243.298,288.211 L 260.271,288.211"/>
    <path style="fill: #ffffff" d="M 261.699 329.879 L 257.451,329.879 L 257.451,334.609 L 254.613,334.609 L 259.807,339.83 L 264.528,334.609 L 261.699,334.609 L 261.699,329.879z"/>
    <path style="fill: none; fill-opacity:0; stroke-width: 0.02; stroke: #003c55" d="M 261.699 329.879 L 257.451,329.879 L 257.451,334.609 L 254.613,334.609 L 259.807,339.83 L 264.528,334.609 L 261.699,334.609 L 261.699,329.879"/>
    <path style="fill: #ffffff" d="M 257.451 325.613 L 261.699,325.613 L 261.699,319.938 L 264.528,319.938 L 259.343,314.744 L 254.613,319.938 L 257.451,319.938 L 257.451,325.613z"/>
    <path style="fill: none; fill-opacity:0; stroke-width: 0.02; stroke: #003c55" d="M 257.451 325.613 L 261.699,325.613 L 261.699,319.938 L 264.528,319.938 L 259.343,314.744 L 254.613,319.938 L 257.451,319.938 L 257.451,325.613"/>
    <path style="fill: #ffffff" d="M 243.298 325.613 L 243.298,329.879 L 251.775,329.879 L 251.775,332.717 L 256.969,327.997 L 252.267,322.775 L 252.267,325.613 L 243.298,325.613z"/>
    <path style="fill: none; fill-opacity:0; stroke-width: 0.02; stroke: #003c55" d="M 243.298 325.613 L 243.298,329.879 L 251.775,329.879 L 251.775,332.717 L 256.969,327.997 L 252.267,322.775 L 252.267,325.613 L 243.298,325.613"/>
    <path style="fill: #ffffff" d="M 275.852 329.416 L 275.852,325.613 L 266.884,325.613 L 266.884,322.312 L 261.699,327.505 L 266.884,332.717 L 266.884,329.416 L 275.852,329.416z"/>
    <path style="fill: none; fill-opacity:0; stroke-width: 0.02; stroke: #003c55" d="M 275.852 329.416 L 275.852,325.613 L 266.884,325.613 L 266.884,322.312 L 261.699,327.505 L 266.884,332.717 L 266.884,329.416 L 275.852,329.416"/>
  </g>
  <g>
    <path style="fill: #0096d4" d="M 240.924 383.418 L 240.924,448.281 L 279.145,448.281 L 279.145,383.418 L 240.924,383.418z"/>
    <path style="fill: none; fill-opacity:0; stroke-width: 0.02; stroke: #aae6ff" d="M 240.924 383.418 L 240.924,448.281 L 279.145,448.281 L 279.145,383.418 L 240.924,383.418"/>
    <path style="fill: #00b4ff" d="M 240.924 383.418 L 246.127,378.224 L 284.339,378.224 L 279.145,383.418 L 240.924,383.418z"/>
    <path style="fill: none; fill-opacity:0; stroke-width: 0.02; stroke: #aae6ff" d="M 240.924 383.418 L 246.127,378.224 L 284.339,378.224 L 279.145,383.418 L 240.924,383.418"/>
    <path style="fill: #2ac0ff" d="M 243.298 387.211 L 260.753,387.211 L 260.753,395.734 L 243.298,395.734 L 243.298,387.211z"/>
    <path style="fill: none; fill-opacity:0; stroke-width: 0.02; stroke: #005a80" d="M 243.298 387.211 L 260.735,387.211 L 260.735,395.725 L 243.298,395.725 L 243.298,387.211"/>
    <path style="fill: none; fill-opacity:0; stroke-width: 0.6; stroke: #aae6ff" d="M 246.127 391.477 L 257.451,391.477"/>
    <path style="fill: #005a80" d="M 279.145 448.281 L 284.339,443.087 L 284.339,378.224 L 279.145,383.418 L 279.145,448.281z"/>
    <path style="fill: none; fill-opacity:0; stroke-width: 0.02; stroke: #aae6ff" d="M 279.145 448.281 L 284.339,443.087 L 284.339,378.224 L 279.145,383.418 L 279.145,448.281"/>
    <path style="fill: none; fill-opacity:0; stroke-width: 0.6; stroke: #aae6ff" d="M 241.87 444.024 L 278.681,444.024"/>
    <path style="fill: none; fill-opacity:0; stroke-width: 0.6; stroke: #aae6ff" d="M 241.87 409.487 L 278.681,409.487"/>
    <path style="fill: none; fill-opacity:0; stroke-width: 0.6; stroke: #005a80" d="M 241.406 443.56 L 278.681,443.56"/>
    <path style="fill: none; fill-opacity:0; stroke-width: 0.6; stroke: #005a80" d="M 241.406 408.987 L 278.681,408.987"/>
    <path style="fill: none; fill-opacity:0; stroke-width: 0.02; stroke: #aae6ff" d="M 243.298 395.279 L 243.298,387.211 L 260.271,387.211"/>
    <path style="fill: #ffffff" d="M 261.699 428.879 L 257.451,428.879 L 257.451,433.609 L 254.613,433.609 L 259.807,438.83 L 264.528,433.609 L 261.699,433.609 L 261.699,428.879z"/>
    <path style="fill: none; fill-opacity:0; stroke-width: 0.02; stroke: #003c55" d="M 261.699 428.879 L 257.451,428.879 L 257.451,433.609 L 254.613,433.609 L 259.807,438.83 L 264.528,433.609 L 261.699,433.609 L 261.699,428.879"/>
    <path style="fill: #ffffff" d="M 257.451 424.613 L 261.699,424.613 L 261.699,418.938 L 264.528,418.938 L 259.343,413.744 L 254.613,418.938 L 257.451,418.938 L 257.451,424.613z"/>
    <path style="fill: none; fill-opacity:0; stroke-width: 0.02; stroke: #003c55" d="M 257.451 424.613 L 261.699,424.613 L 261.699,418.938 L 264.528,418.938 L 259.343,413.744 L 254.613,418.938 L 257.451,418.938 L 257.451,424.613"/>
    <path style="fill: #ffffff" d="M 243.298 424.613 L 243.298,428.879 L 251.775,428.879 L 251.775,431.717 L 256.969,426.997 L 252.267,421.775 L 252.267,424.613 L 243.298,424.613z"/>
    <path style="fill: none; fill-opacity:0; stroke-width: 0.02; stroke: #003c55" d="M 243.298 424.613 L 243.298,428.879 L 251.775,428.879 L 251.775,431.717 L 256.969,426.997 L 252.267,421.775 L 252.267,424.613 L 243.298,424.613"/>
    <path style="fill: #ffffff" d="M 275.852 428.416 L 275.852,424.613 L 266.884,424.613 L 266.884,421.312 L 261.699,426.505 L 266.884,431.717 L 266.884,428.416 L 275.852,428.416z"/>
    <path style="fill: none; fill-opacity:0; stroke-width: 0.02; stroke: #003c55" d="M 275.852 428.416 L 275.852,424.613 L 266.884,424.613 L 266.884,421.312 L 261.699,426.505 L 266.884,431.717 L 266.884,428.416 L 275.852,428.416"/>
  </g>
  <g>
    <path style="fill: #0096d4" d="M 399.606 310.968 L 399.606,410.478 L 458.243,410.478 L 458.243,310.968 L 399.606,310.968z"/>
    <path style="fill: none; fill-opacity:0; stroke-width: 0.02; stroke: #aae6ff" d="M 399.606 310.968 L 399.606,410.478 L 458.243,410.478 L 458.243,310.968 L 399.606,310.968"/>
    <path style="fill: #00b4ff" d="M 399.606 310.968 L 407.588,303 L 466.211,303 L 458.243,310.968 L 399.606,310.968z"/>
    <path style="fill: none; fill-opacity:0; stroke-width: 0.02; stroke: #aae6ff" d="M 399.606 310.968 L 407.588,303 L 466.211,303 L 458.243,310.968 L 399.606,310.968"/>
    <path style="fill: #2ac0ff" d="M 403.248 316.787 L 430.027,316.787 L 430.027,329.863 L 403.248,329.863 L 403.248,316.787z"/>
    <path style="fill: none; fill-opacity:0; stroke-width: 0.02; stroke: #005a80" d="M 403.248 316.787 L 429.999,316.787 L 429.999,329.849 L 403.248,329.849 L 403.248,316.787"/>
    <path style="fill: none; fill-opacity:0; stroke-width: 0.6; stroke: #aae6ff" d="M 407.588 323.332 L 424.961,323.332"/>
    <path style="fill: #005a80" d="M 458.243 410.478 L 466.211,402.51 L 466.211,303 L 458.243,310.968 L 458.243,410.478z"/>
    <path style="fill: none; fill-opacity:0; stroke-width: 0.02; stroke: #aae6ff" d="M 458.243 410.478 L 466.211,402.51 L 466.211,303 L 458.243,310.968 L 458.243,410.478"/>
    <path style="fill: none; fill-opacity:0; stroke-width: 0.6; stroke: #aae6ff" d="M 401.057 403.947 L 457.531,403.947"/>
    <path style="fill: none; fill-opacity:0; stroke-width: 0.6; stroke: #aae6ff" d="M 401.057 350.962 L 457.531,350.962"/>
    <path style="fill: none; fill-opacity:0; stroke-width: 0.6; stroke: #005a80" d="M 400.346 403.236 L 457.531,403.236"/>
    <path style="fill: none; fill-opacity:0; stroke-width: 0.6; stroke: #005a80" d="M 400.346 350.194 L 457.531,350.194"/>
    <path style="fill: none; fill-opacity:0; stroke-width: 0.02; stroke: #aae6ff" d="M 403.248 329.165 L 403.248,316.787 L 429.287,316.787"/>
    <path style="fill: #ffffff" d="M 431.478 380.713 L 424.961,380.713 L 424.961,387.969 L 420.608,387.969 L 428.576,395.979 L 435.818,387.969 L 431.478,387.969 L 431.478,380.713z"/>
    <path style="fill: none; fill-opacity:0; stroke-width: 0.02; stroke: #003c55" d="M 431.478 380.713 L 424.961,380.713 L 424.961,387.969 L 420.608,387.969 L 428.576,395.979 L 435.818,387.969 L 431.478,387.969 L 431.478,380.713"/>
    <path style="fill: #ffffff" d="M 424.961 374.168 L 431.478,374.168 L 431.478,365.461 L 435.818,365.461 L 427.864,357.493 L 420.608,365.461 L 424.961,365.461 L 424.961,374.168z"/>
    <path style="fill: none; fill-opacity:0; stroke-width: 0.02; stroke: #003c55" d="M 424.961 374.168 L 431.478,374.168 L 431.478,365.461 L 435.818,365.461 L 427.864,357.493 L 420.608,365.461 L 424.961,365.461 L 424.961,374.168"/>
    <path style="fill: #ffffff" d="M 403.248 374.168 L 403.248,380.713 L 416.254,380.713 L 416.254,385.067 L 424.222,377.824 L 417.007,369.814 L 417.007,374.168 L 403.248,374.168z"/>
    <path style="fill: none; fill-opacity:0; stroke-width: 0.02; stroke: #003c55" d="M 403.248 374.168 L 403.248,380.713 L 416.254,380.713 L 416.254,385.067 L 424.222,377.824 L 417.007,369.814 L 417.007,374.168 L 403.248,374.168"/>
    <path style="fill: #ffffff" d="M 453.192 380.001 L 453.192,374.168 L 439.432,374.168 L 439.432,369.103 L 431.478,377.071 L 439.432,385.067 L 439.432,380.001 L 453.192,380.001z"/>
    <path style="fill: none; fill-opacity:0; stroke-width: 0.02; stroke: #003c55" d="M 453.192 380.001 L 453.192,374.168 L 439.432,374.168 L 439.432,369.103 L 431.478,377.071 L 439.432,385.067 L 439.432,380.001 L 453.192,380.001"/>
  </g>
  <g>
    <path style="fill: #0096d4" d="M 240.924 562.418 L 240.924,627.281 L 279.145,627.281 L 279.145,562.418 L 240.924,562.418z"/>
    <path style="fill: none; fill-opacity:0; stroke-width: 0.02; stroke: #aae6ff" d="M 240.924 562.418 L 240.924,627.281 L 279.145,627.281 L 279.145,562.418 L 240.924,562.418"/>
    <path style="fill: #00b4ff" d="M 240.924 562.418 L 246.127,557.224 L 284.339,557.224 L 279.145,562.418 L 240.924,562.418z"/>
    <path style="fill: none; fill-opacity:0; stroke-width: 0.02; stroke: #aae6ff" d="M 240.924 562.418 L 246.127,557.224 L 284.339,557.224 L 279.145,562.418 L 240.924,562.418"/>
    <path style="fill: #2ac0ff" d="M 243.298 566.211 L 260.753,566.211 L 260.753,574.734 L 243.298,574.734 L 243.298,566.211z"/>
    <path style="fill: none; fill-opacity:0; stroke-width: 0.02; stroke: #005a80" d="M 243.298 566.211 L 260.735,566.211 L 260.735,574.725 L 243.298,574.725 L 243.298,566.211"/>
    <path style="fill: none; fill-opacity:0; stroke-width: 0.6; stroke: #aae6ff" d="M 246.127 570.477 L 257.451,570.477"/>
    <path style="fill: #005a80" d="M 279.145 627.281 L 284.339,622.087 L 284.339,557.224 L 279.145,562.418 L 279.145,627.281z"/>
    <path style="fill: none; fill-opacity:0; stroke-width: 0.02; stroke: #aae6ff" d="M 279.145 627.281 L 284.339,622.087 L 284.339,557.224 L 279.145,562.418 L 279.145,627.281"/>
    <path style="fill: none; fill-opacity:0; stroke-width: 0.6; stroke: #aae6ff" d="M 241.87 623.024 L 278.681,623.024"/>
    <path style="fill: none; fill-opacity:0; stroke-width: 0.6; stroke: #aae6ff" d="M 241.87 588.487 L 278.681,588.487"/>
    <path style="fill: none; fill-opacity:0; stroke-width: 0.6; stroke: #005a80" d="M 241.406 622.56 L 278.681,622.56"/>
    <path style="fill: none; fill-opacity:0; stroke-width: 0.6; stroke: #005a80" d="M 241.406 587.987 L 278.681,587.987"/>
    <path style="fill: none; fill-opacity:0; stroke-width: 0.02; stroke: #aae6ff" d="M 243.298 574.279 L 243.298,566.211 L 260.271,566.211"/>
    <path style="fill: #ffffff" d="M 261.699 607.879 L 257.451,607.879 L 257.451,612.609 L 254.613,612.609 L 259.807,617.83 L 264.528,612.609 L 261.699,612.609 L 261.699,607.879z"/>
    <path style="fill: none; fill-opacity:0; stroke-width: 0.02; stroke: #003c55" d="M 261.699 607.879 L 257.451,607.879 L 257.451,612.609 L 254.613,612.609 L 259.807,617.83 L 264.528,612.609 L 261.699,612.609 L 261.699,607.879"/>
    <path style="fill: #ffffff" d="M 257.451 603.613 L 261.699,603.613 L 261.699,597.938 L 264.528,597.938 L 259.343,592.744 L 254.613,597.938 L 257.451,597.938 L 257.451,603.613z"/>
    <path style="fill: none; fill-opacity:0; stroke-width: 0.02; stroke: #003c55" d="M 257.451 603.613 L 261.699,603.613 L 261.699,597.938 L 264.528,597.938 L 259.343,592.744 L 254.613,597.938 L 257.451,597.938 L 257.451,603.613"/>
    <path style="fill: #ffffff" d="M 243.298 603.613 L 243.298,607.879 L 251.775,607.879 L 251.775,610.717 L 256.969,605.997 L 252.267,600.775 L 252.267,603.613 L 243.298,603.613z"/>
    <path style="fill: none; fill-opacity:0; stroke-width: 0.02; stroke: #003c55" d="M 243.298 603.613 L 243.298,607.879 L 251.775,607.879 L 251.775,610.717 L 256.969,605.997 L 252.267,600.775 L 252.267,603.613 L 243.298,603.613"/>
    <path style="fill: #ffffff" d="M 275.852 607.416 L 275.852,603.613 L 266.884,603.613 L 266.884,600.312 L 261.699,605.505 L 266.884,610.717 L 266.884,607.416 L 275.852,607.416z"/>
    <path style="fill: none; fill-opacity:0; stroke-width: 0.02; stroke: #003c55" d="M 275.852 607.416 L 275.852,603.613 L 266.884,603.613 L 266.884,600.312 L 261.699,605.505 L 266.884,610.717 L 266.884,607.416 L 275.852,607.416"/>
  </g>
  <g>
    <path style="fill: none; fill-opacity:0; stroke-width: 0.6; stroke: #0078aa" d="M 952.729 175.182 L 952.863,175.02 L 952.969,174.841 L 953.07,174.657 L 953.165,174.484 L 953.243,174.289 L 953.293,174.105 L 953.354,173.91 L 953.393,173.72 L 953.421,173.525 L 953.427,173.335 L 953.427,173.134 L 953.421,172.928 L 953.393,172.743 L 953.354,172.543 L 953.304,172.364 L 953.243,172.169 L 953.165,171.985 L 953.07,171.8 L 952.969,171.622 L 952.863,171.455 L 952.729,171.276 L 952.596,171.109 L 952.456,170.947 L 952.294,170.791 L 952.138,170.645 L 951.959,170.495 L 951.775,170.366 L 951.58,170.233 L 951.374,170.121 L 951.167,169.993 L 950.95,169.892 L 950.715,169.792 L 950.498,169.708 L 950.258,169.641 L 950.012,169.563 L 949.772,169.502 L 949.527,169.451 L 949.276,169.407 L 949.025,169.379 L 948.762,169.362 L 948.511,169.34 L 948.249,169.34 L 948.003,169.357 L 947.741,169.362 L 947.49,169.396 L 947.239,169.435 L 946.982,169.479 L 946.748,169.535 L 946.491,169.591 L 946.268,169.675 L 946.028,169.753 L 945.794,169.848 L 945.582,169.948 L 945.37,170.06 L 945.158,170.171 L 944.957,170.3 L 944.773,170.422 L 944.6,170.567 L 944.421,170.718 L 944.259,170.869 L 944.114,171.03 L 943.969,171.192"/>
    <path style="fill: none; fill-opacity:0; stroke-width: 0.4; stroke: #aae6ff" d="M 952.557 175.048 L 952.663,174.88 L 952.769,174.724 L 952.869,174.551 L 952.947,174.367 L 953.014,174.194 L 953.075,174.016 L 953.131,173.832 L 953.165,173.659 L 953.187,173.474 L 953.193,173.285 L 953.193,173.101 L 953.181,172.916 L 953.148,172.727 L 953.114,172.554 L 953.064,172.37 L 952.997,172.191 L 952.925,172.013 L 952.836,171.845 L 952.746,171.678 L 952.629,171.516 L 952.512,171.354 L 952.378,171.192 L 952.238,171.042 L 952.088,170.897 L 951.926,170.763 L 951.753,170.629 L 951.574,170.506 L 951.379,170.372 L 951.195,170.266 L 950.989,170.166 L 950.777,170.065 L 950.565,169.97 L 950.347,169.892 L 950.124,169.82 L 949.889,169.753 L 949.655,169.708 L 949.415,169.652 L 949.17,169.619 L 948.935,169.591 L 948.69,169.569 L 948.439,169.563 L 948.193,169.563 L 947.959,169.569 L 947.713,169.585 L 947.473,169.619 L 947.228,169.652 L 946.999,169.691 L 946.759,169.753 L 946.525,169.814 L 946.302,169.887 L 946.073,169.965 L 945.861,170.06 L 945.654,170.149 L 945.459,170.266 L 945.264,170.372 L 945.063,170.489 L 944.884,170.618 L 944.717,170.751 L 944.555,170.88 L 944.399,171.03 L 944.259,171.176 L 944.137,171.332"/>
    <path style="fill: #00b4ff" d="M 916.74 169.122 L 920.523,165.557 L 948.762,165.557 L 944.985,169.122 L 916.74,169.122z"/>
    <path style="fill: none; fill-opacity:0; stroke-width: 0.02; stroke: #aae6ff" d="M 916.74 169.122 L 920.523,165.557 L 948.762,165.557 L 944.985,169.122 L 916.74,169.122"/>
    <path style="fill: #0096d4" d="M 916.74 169.122 L 944.985,169.122 L 944.985,174.462 L 916.74,174.462 L 916.74,169.122z"/>
    <path style="fill: none; fill-opacity:0; stroke-width: 0.02; stroke: #aae6ff" d="M 916.74 169.122 L 944.985,169.122 L 944.985,174.462 L 916.74,174.462 L 916.74,169.122"/>
    <path style="fill: #005a80" d="M 944.985 174.462 L 948.762,170.685 L 948.762,165.557 L 944.985,169.122 L 944.985,174.462z"/>
    <path style="fill: none; fill-opacity:0; stroke-width: 0.02; stroke: #aae6ff" d="M 944.985 174.462 L 948.762,170.685 L 948.762,165.557 L 944.985,169.122 L 944.985,174.462"/>
    <path style="fill: #000000" d="M 917.644 168.453 L 920.523,165.557 L 948.093,165.557 L 945.214,168.453 L 917.644,168.453z"/>
    <path style="fill: none; fill-opacity:0; stroke-width: 0.02; stroke: #000000" d="M 917.644 168.453 L 920.523,165.557 L 948.093,165.557 L 945.214,168.453 L 917.644,168.453"/>
    <path style="fill: #00b4ff" d="M 916.74 145.537 L 919.859,142.646 L 948.093,142.646 L 944.985,145.537 L 916.74,145.537z"/>
    <path style="fill: none; fill-opacity:0; stroke-width: 0.02; stroke: #aae6ff" d="M 916.74 145.537 L 919.859,142.646 L 948.093,142.646 L 944.985,145.537 L 916.74,145.537"/>
    <path style="fill: #0096d4" d="M 916.74 145.537 L 945.214,145.537 L 945.214,168.001 L 916.74,168.001 L 916.74,145.537z"/>
    <path style="fill: none; fill-opacity:0; stroke-width: 0.02; stroke: #aae6ff" d="M 916.74 145.537 L 945.197,145.537 L 945.197,168.001 L 916.74,168.001 L 916.74,145.537"/>
    <path style="fill: #ffffff" d="M 919.195 148.421 L 942.753,148.421 L 942.753,165.786 L 919.195,165.786 L 919.195,148.421z"/>
    <path style="fill: none; fill-opacity:0; stroke-width: 0.02; stroke: #003c55" d="M 919.195 148.421 L 942.747,148.421 L 942.747,165.78 L 919.195,165.78 L 919.195,148.421"/>
    <path style="fill: #005a80" d="M 944.985 167.789 L 948.093,164.664 L 948.093,142.646 L 944.985,145.537 L 944.985,167.789z"/>
    <path style="fill: none; fill-opacity:0; stroke-width: 0.02; stroke: #aae6ff" d="M 944.985 167.789 L 948.093,164.664 L 948.093,142.646 L 944.985,145.537 L 944.985,167.789"/>
    <path style="fill: #00b4ff" d="M 911.194 178.915 L 915.635,173.346 L 946.318,173.346 L 941.877,178.915 L 911.194,178.915z"/>
    <path style="fill: none; fill-opacity:0; stroke-width: 0.02; stroke: #aae6ff" d="M 911.194 178.915 L 915.635,173.346 L 946.318,173.346 L 941.877,178.915 L 911.194,178.915"/>
    <path style="fill: #005a80" d="M 941.877 180.025 L 946.318,175.355 L 946.318,173.346 L 941.877,178.915 L 941.877,180.025z"/>
    <path style="fill: none; fill-opacity:0; stroke-width: 0.02; stroke: #aae6ff" d="M 941.877 180.025 L 946.318,175.355 L 946.318,173.346 L 941.877,178.915 L 941.877,180.025"/>
    <path style="fill: #0096d4" d="M 911.194 178.915 L 941.877,178.915 L 941.877,180.025 L 911.194,180.025 L 911.194,178.915z"/>
    <path style="fill: none; fill-opacity:0; stroke-width: 0.02; stroke: #aae6ff" d="M 911.194 178.915 L 941.877,178.915 L 941.877,180.025 L 911.194,180.025 L 911.194,178.915"/>
    <path style="fill: #00b4ff" d="M 948.093 178.239 L 950.319,174.908 L 954.331,174.908 L 952.099,178.239 L 948.093,178.239z"/>
    <path style="fill: none; fill-opacity:0; stroke-width: 0.02; stroke: #aae6ff" d="M 948.093 178.239 L 950.319,174.908 L 954.331,174.908 L 952.099,178.239 L 948.093,178.239"/>
    <path style="fill: #005a80" d="M 952.099 179.355 L 954.331,176.906 L 954.331,174.908 L 952.099,178.239 L 952.099,179.355z"/>
    <path style="fill: none; fill-opacity:0; stroke-width: 0.02; stroke: #aae6ff" d="M 952.099 179.355 L 954.331,176.906 L 954.331,174.908 L 952.099,178.239 L 952.099,179.355"/>
    <path style="fill: #0096d4" d="M 948.093 178.239 L 952.099,178.239 L 952.099,179.355 L 948.093,179.355 L 948.093,178.239z"/>
    <path style="fill: none; fill-opacity:0; stroke-width: 0.02; stroke: #aae6ff" d="M 948.093 178.239 L 952.099,178.239 L 952.099,179.355 L 948.093,179.355 L 948.093,178.239"/>
    <path style="fill: none; fill-opacity:0; stroke-width: 0.8; stroke: #cf0e30" d="M 940.532 157.103 L 940.527,156.836 L 940.488,156.568 L 940.426,156.294 L 940.337,156.038 L 940.231,155.764 L 940.097,155.513 L 939.93,155.245 L 939.751,155 L 939.539,154.749 L 939.31,154.514 L 939.059,154.275 L 938.78,154.046 L 938.484,153.839 L 938.178,153.627 L 937.843,153.432 L 937.491,153.242 L 937.123,153.053 L 936.732,152.88 L 936.342,152.723 L 935.929,152.573 L 935.499,152.444 L 935.07,152.31 L 934.618,152.199 L 934.149,152.098 L 933.68,152.009 L 933.2,151.931 L 932.715,151.87 L 932.23,151.819 L 931.744,151.786 L 931.248,151.769 L 930.757,151.764 L 930.757,151.764 L 930.266,151.769 L 929.758,151.786 L 929.272,151.819 L 928.787,151.87 L 928.296,151.931 L 927.827,152.009 L 927.358,152.098 L 926.901,152.199 L 926.443,152.31 L 926.008,152.444 L 925.579,152.573 L 925.16,152.723 L 924.775,152.88 L 924.379,153.053 L 924.022,153.242 L 923.659,153.432 L 923.33,153.627 L 923.029,153.839 L 922.733,154.046 L 922.454,154.275 L 922.197,154.514 L 921.968,154.749 L 921.762,155 L 921.578,155.245 L 921.41,155.513 L 921.288,155.764 L 921.165,156.038 L 921.081,156.294 L 921.025,156.568 L 920.975,156.836 L 920.975,157.103 L 920.975,157.103 L 920.975,157.377 L 921.025,157.639 L 921.081,157.918 L 921.165,158.186 L 921.288,158.443 L 921.41,158.699 L 921.578,158.967 L 921.762,159.213 L 921.968,159.458 L 922.197,159.698 L 922.454,159.938 L 922.733,160.161 L 923.029,160.373 L 923.33,160.591 L 923.659,160.781 L 924.022,160.976 L 924.379,161.16 L 924.775,161.333 L 925.16,161.484 L 925.579,161.634 L 926.008,161.768 L 926.443,161.896 L 926.901,162.014 L 927.358,162.108 L 927.827,162.198 L 928.296,162.281 L 928.787,162.337 L 929.272,162.387 L 929.758,162.421 L 930.266,162.438 L 930.757,162.449 L 930.757,162.449 L 931.248,162.438 L 931.744,162.421 L 932.23,162.387 L 932.715,162.337 L 933.2,162.281 L 933.68,162.198 L 934.149,162.108 L 934.618,162.014 L 935.07,161.896 L 935.499,161.768 L 935.929,161.634 L 936.342,161.484 L 936.732,161.333 L 937.123,161.16 L 937.491,160.976 L 937.843,160.781 L 938.178,160.591 L 938.484,160.373 L 938.78,160.161 L 939.059,159.938 L 939.31,159.698 L 939.539,159.458 L 939.751,159.213 L 939.93,158.967 L 940.097,158.699 L 940.231,158.443 L 940.337,158.186 L 940.426,157.918 L 940.488,157.639 L 940.527,157.377 L 940.532,157.103"/>
    <path style="fill: none; fill-opacity:0; stroke-width: 0.8; stroke: #cf0e30" d="M 938.535 157.103 L 938.529,156.908 L 938.501,156.718 L 938.451,156.529 L 938.378,156.339 L 938.284,156.155 L 938.172,155.965 L 938.044,155.792 L 937.893,155.619 L 937.72,155.441 L 937.525,155.273 L 937.318,155.1 L 937.095,154.944 L 936.861,154.793 L 936.604,154.643 L 936.336,154.503 L 936.057,154.364 L 935.745,154.235 L 935.438,154.118 L 935.114,153.996 L 934.768,153.89 L 934.422,153.8 L 934.06,153.705 L 933.686,153.627 L 933.323,153.56 L 932.921,153.499 L 932.536,153.438 L 932.151,153.399 L 931.744,153.359 L 931.342,153.337 L 930.935,153.332 L 930.544,153.32 L 930.544,153.32 L 930.132,153.332 L 929.73,153.337 L 929.328,153.359 L 928.926,153.399 L 928.525,153.438 L 928.14,153.499 L 927.76,153.56 L 927.386,153.627 L 927.007,153.705 L 926.655,153.8 L 926.293,153.89 L 925.964,153.996 L 925.629,154.118 L 925.327,154.235 L 925.032,154.364 L 924.742,154.503 L 924.474,154.643 L 924.212,154.793 L 923.972,154.944 L 923.748,155.1 L 923.542,155.273 L 923.358,155.441 L 923.185,155.619 L 923.034,155.792 L 922.906,155.965 L 922.789,156.155 L 922.699,156.339 L 922.632,156.529 L 922.577,156.718 L 922.543,156.908 L 922.538,157.103 L 922.538,157.103 L 922.543,157.299 L 922.577,157.488 L 922.632,157.678 L 922.699,157.868 L 922.789,158.058 L 922.906,158.242 L 923.034,158.415 L 923.185,158.593 L 923.358,158.772 L 923.542,158.934 L 923.748,159.107 L 923.972,159.263 L 924.212,159.419 L 924.474,159.564 L 924.742,159.709 L 925.032,159.843 L 925.327,159.977 L 925.629,160.094 L 925.964,160.217 L 926.293,160.323 L 926.655,160.412 L 927.007,160.502 L 927.386,160.591 L 927.76,160.652 L 928.14,160.714 L 928.525,160.775 L 928.926,160.814 L 929.328,160.847 L 929.73,160.881 L 930.132,160.887 L 930.544,160.892 L 930.544,160.892 L 930.935,160.887 L 931.342,160.881 L 931.744,160.847 L 932.151,160.814 L 932.536,160.775 L 932.921,160.714 L 933.323,160.652 L 933.686,160.591 L 934.06,160.502 L 934.422,160.412 L 934.768,160.323 L 935.114,160.217 L 935.438,160.094 L 935.745,159.977 L 936.057,159.843 L 936.336,159.709 L 936.604,159.564 L 936.861,159.419 L 937.095,159.263 L 937.318,159.107 L 937.525,158.934 L 937.72,158.772 L 937.893,158.593 L 938.044,158.415 L 938.172,158.242 L 938.284,158.058 L 938.378,157.868 L 938.451,157.678 L 938.501,157.488 L 938.529,157.299 L 938.535,157.103"/>
  </g>
  <g>
    <line style="fill: none; fill-opacity:0; stroke-width: 2; stroke: #000000" x1="284.634" y1="236.088" x2="392.033" y2="322.715"/>
    <polygon style="fill: #000000" points="397.871,327.423 386.948,325.037 392.033,322.715 393.226,317.253 "/>
    <polygon style="fill: none; fill-opacity:0; stroke-width: 2; stroke: #000000" points="397.871,327.423 386.948,325.037 392.033,322.715 393.226,317.253 "/>
  </g>
  <g>
    <line style="fill: none; fill-opacity:0; stroke-width: 2; stroke: #000000" x1="284.634" y1="319.008" x2="390.16" y2="345.111"/>
    <polygon style="fill: #000000" points="397.44,346.912 386.532,349.364 390.16,345.111 388.934,339.657 "/>
    <polygon style="fill: none; fill-opacity:0; stroke-width: 2; stroke: #000000" points="397.44,346.912 386.532,349.364 390.16,345.111 388.934,339.657 "/>
  </g>
  <g>
    <line style="fill: none; fill-opacity:0; stroke-width: 2; stroke: #000000" x1="284.634" y1="405.216" x2="390.377" y2="369.894"/>
    <polygon style="fill: #000000" points="397.49,367.517 389.59,375.428 390.377,369.894 386.421,365.943 "/>
    <polygon style="fill: none; fill-opacity:0; stroke-width: 2; stroke: #000000" points="397.49,367.517 389.59,375.428 390.377,369.894 386.421,365.943 "/>
  </g>
  <g>
    <line style="fill: none; fill-opacity:0; stroke-width: 2; stroke: #000000" x1="284.634" y1="561.087" x2="393.912" y2="409.708"/>
    <polygon style="fill: #000000" points="398.302,403.626 396.503,414.661 393.912,409.708 388.395,408.808 "/>
    <polygon style="fill: none; fill-opacity:0; stroke-width: 2; stroke: #000000" points="398.302,403.626 396.503,414.661 393.912,409.708 388.395,408.808 "/>
  </g>
  <g>
    <path style="fill: #ffffff" d="M 620.921 309.918 C 601.023,309.316 562.432,321.959 567.859,349.053 C 573.286,376.146 599.214,382.166 610.067,374.34 C 620.921,366.513 593.184,412.27 646.246,424.311 C 699.308,436.353 726.442,417.086 718.603,403.239 C 710.764,389.391 765.032,435.75 790.357,409.259 C 815.683,382.768 764.429,357.482 775.283,361.094 C 786.137,364.706 819.3,359.89 808.447,314.735 C 797.593,269.579 699.911,304.499 710.764,297.877 C 721.618,291.254 694.484,258.14 660.717,264.763 C 626.951,271.386 624.556,283.404 620.938,309.895 L 620.921,309.918z"/>
    <path style="fill: none; fill-opacity:0; stroke-width: 2; stroke: #000000" d="M 620.921 309.918 C 601.023,309.316 562.432,321.959 567.859,349.053 C 573.286,376.146 599.214,382.166 610.067,374.34 C 620.921,366.513 593.184,412.27 646.246,424.311 C 699.308,436.353 726.442,417.086 718.603,403.239 C 710.764,389.391 765.032,435.75 790.357,409.259 C 815.683,382.768 764.429,357.482 775.283,361.094 C 786.137,364.706 819.3,359.89 808.447,314.735 C 797.593,269.579 699.911,304.499 710.764,297.877 C 721.618,291.254 694.484,258.14 660.717,264.763 C 626.951,271.386 624.556,283.404 620.938,309.895 L 620.921,309.918"/>
    <text font-size="12.8" style="fill: #000000;text-anchor:middle;font-family:sans-serif;font-style:normal;font-weight:normal" x="697.752" y="355.188">
      <tspan x="697.752" y="355.188"></tspan>
    </text>
  </g>
  <g>
    <line style="fill: none; fill-opacity:0; stroke-width: 2; stroke: #000000" x1="911.525" y1="180.025" x2="773.422" y2="284.367"/>
    <polygon style="fill: #000000" points="767.438,288.888 772.402,278.87 773.422,284.367 778.43,286.849 "/>
    <polygon style="fill: none; fill-opacity:0; stroke-width: 2; stroke: #000000" points="767.438,288.888 772.402,278.87 773.422,284.367 778.43,286.849 "/>
  </g>
  <g>
    <line style="fill: none; fill-opacity:0; stroke-width: 2; stroke: #000000" x1="476.24" y1="354.16" x2="557.659" y2="351.292"/>
    <polygon style="fill: #000000" points="468.745,354.424 478.563,349.075 476.24,354.16 478.914,359.069 "/>
    <polygon style="fill: none; fill-opacity:0; stroke-width: 2; stroke: #000000" points="468.745,354.424 478.563,349.075 476.24,354.16 478.914,359.069 "/>
    <polygon style="fill: #000000" points="565.154,351.028 555.336,356.377 557.659,351.292 554.984,346.384 "/>
    <polygon style="fill: none; fill-opacity:0; stroke-width: 2; stroke: #000000" points="565.154,351.028 555.336,356.377 557.659,351.292 554.984,346.384 "/>
  </g>
  <g>
    <path style="fill: none; fill-opacity:0; stroke-width: 0.6; stroke: #0078aa" d="M 981.801 278.771 L 981.935,278.61 L 982.041,278.431 L 982.142,278.247 L 982.237,278.074 L 982.315,277.879 L 982.365,277.695 L 982.426,277.499 L 982.465,277.31 L 982.493,277.114 L 982.499,276.925 L 982.499,276.724 L 982.493,276.517 L 982.465,276.333 L 982.426,276.132 L 982.376,275.954 L 982.315,275.758 L 982.237,275.574 L 982.142,275.39 L 982.041,275.212 L 981.935,275.044 L 981.801,274.866 L 981.668,274.698 L 981.528,274.536 L 981.366,274.38 L 981.21,274.235 L 981.031,274.084 L 980.847,273.956 L 980.652,273.822 L 980.446,273.711 L 980.239,273.582 L 980.022,273.482 L 979.787,273.381 L 979.57,273.298 L 979.33,273.231 L 979.084,273.153 L 978.844,273.091 L 978.599,273.041 L 978.348,272.996 L 978.097,272.968 L 977.834,272.952 L 977.583,272.929 L 977.321,272.929 L 977.075,272.946 L 976.813,272.952 L 976.562,272.985 L 976.311,273.024 L 976.054,273.069 L 975.82,273.125 L 975.563,273.181 L 975.34,273.264 L 975.1,273.342 L 974.866,273.437 L 974.654,273.538 L 974.442,273.649 L 974.23,273.761 L 974.029,273.889 L 973.845,274.012 L 973.672,274.157 L 973.493,274.308 L 973.331,274.458 L 973.186,274.62 L 973.041,274.782"/>
    <path style="fill: none; fill-opacity:0; stroke-width: 0.4; stroke: #aae6ff" d="M 981.629 278.637 L 981.735,278.47 L 981.841,278.314 L 981.941,278.141 L 982.019,277.957 L 982.086,277.784 L 982.147,277.605 L 982.203,277.421 L 982.237,277.248 L 982.259,277.064 L 982.265,276.874 L 982.265,276.69 L 982.253,276.506 L 982.22,276.316 L 982.186,276.143 L 982.136,275.959 L 982.069,275.781 L 981.997,275.602 L 981.908,275.435 L 981.818,275.267 L 981.701,275.106 L 981.584,274.944 L 981.45,274.782 L 981.31,274.631 L 981.16,274.486 L 980.998,274.352 L 980.825,274.218 L 980.646,274.096 L 980.451,273.962 L 980.267,273.856 L 980.061,273.755 L 979.849,273.655 L 979.637,273.56 L 979.419,273.482 L 979.196,273.409 L 978.961,273.342 L 978.727,273.298 L 978.487,273.242 L 978.242,273.208 L 978.007,273.181 L 977.762,273.158 L 977.511,273.153 L 977.265,273.153 L 977.031,273.158 L 976.785,273.175 L 976.545,273.208 L 976.3,273.242 L 976.071,273.281 L 975.831,273.342 L 975.597,273.404 L 975.374,273.476 L 975.145,273.554 L 974.933,273.649 L 974.726,273.738 L 974.531,273.856 L 974.336,273.962 L 974.135,274.079 L 973.956,274.207 L 973.789,274.341 L 973.627,274.469 L 973.471,274.62 L 973.331,274.765 L 973.209,274.921"/>
    <path style="fill: #00b4ff" d="M 945.812 272.712 L 949.595,269.146 L 977.834,269.146 L 974.057,272.712 L 945.812,272.712z"/>
    <path style="fill: none; fill-opacity:0; stroke-width: 0.02; stroke: #aae6ff" d="M 945.812 272.712 L 949.595,269.146 L 977.834,269.146 L 974.057,272.712 L 945.812,272.712"/>
    <path style="fill: #0096d4" d="M 945.812 272.712 L 974.057,272.712 L 974.057,278.052 L 945.812,278.052 L 945.812,272.712z"/>
    <path style="fill: none; fill-opacity:0; stroke-width: 0.02; stroke: #aae6ff" d="M 945.812 272.712 L 974.057,272.712 L 974.057,278.052 L 945.812,278.052 L 945.812,272.712"/>
    <path style="fill: #005a80" d="M 974.057 278.052 L 977.834,274.274 L 977.834,269.146 L 974.057,272.712 L 974.057,278.052z"/>
    <path style="fill: none; fill-opacity:0; stroke-width: 0.02; stroke: #aae6ff" d="M 974.057 278.052 L 977.834,274.274 L 977.834,269.146 L 974.057,272.712 L 974.057,278.052"/>
    <path style="fill: #000000" d="M 946.716 272.042 L 949.595,269.146 L 977.165,269.146 L 974.286,272.042 L 946.716,272.042z"/>
    <path style="fill: none; fill-opacity:0; stroke-width: 0.02; stroke: #000000" d="M 946.716 272.042 L 949.595,269.146 L 977.165,269.146 L 974.286,272.042 L 946.716,272.042"/>
    <path style="fill: #00b4ff" d="M 945.812 249.126 L 948.931,246.236 L 977.165,246.236 L 974.057,249.126 L 945.812,249.126z"/>
    <path style="fill: none; fill-opacity:0; stroke-width: 0.02; stroke: #aae6ff" d="M 945.812 249.126 L 948.931,246.236 L 977.165,246.236 L 974.057,249.126 L 945.812,249.126"/>
    <path style="fill: #0096d4" d="M 945.812 249.126 L 974.286,249.126 L 974.286,271.59 L 945.812,271.59 L 945.812,249.126z"/>
    <path style="fill: none; fill-opacity:0; stroke-width: 0.02; stroke: #aae6ff" d="M 945.812 249.126 L 974.269,249.126 L 974.269,271.59 L 945.812,271.59 L 945.812,249.126"/>
    <path style="fill: #ffffff" d="M 948.267 252.011 L 971.825,252.011 L 971.825,269.375 L 948.267,269.375 L 948.267,252.011z"/>
    <path style="fill: none; fill-opacity:0; stroke-width: 0.02; stroke: #003c55" d="M 948.267 252.011 L 971.819,252.011 L 971.819,269.37 L 948.267,269.37 L 948.267,252.011"/>
    <path style="fill: #005a80" d="M 974.057 271.378 L 977.165,268.254 L 977.165,246.236 L 974.057,249.126 L 974.057,271.378z"/>
    <path style="fill: none; fill-opacity:0; stroke-width: 0.02; stroke: #aae6ff" d="M 974.057 271.378 L 977.165,268.254 L 977.165,246.236 L 974.057,249.126 L 974.057,271.378"/>
    <path style="fill: #00b4ff" d="M 940.266 282.504 L 944.707,276.936 L 975.39,276.936 L 970.949,282.504 L 940.266,282.504z"/>
    <path style="fill: none; fill-opacity:0; stroke-width: 0.02; stroke: #aae6ff" d="M 940.266 282.504 L 944.707,276.936 L 975.39,276.936 L 970.949,282.504 L 940.266,282.504"/>
    <path style="fill: #005a80" d="M 970.949 283.615 L 975.39,278.944 L 975.39,276.936 L 970.949,282.504 L 970.949,283.615z"/>
    <path style="fill: none; fill-opacity:0; stroke-width: 0.02; stroke: #aae6ff" d="M 970.949 283.615 L 975.39,278.944 L 975.39,276.936 L 970.949,282.504 L 970.949,283.615"/>
    <path style="fill: #0096d4" d="M 940.266 282.504 L 970.949,282.504 L 970.949,283.615 L 940.266,283.615 L 940.266,282.504z"/>
    <path style="fill: none; fill-opacity:0; stroke-width: 0.02; stroke: #aae6ff" d="M 940.266 282.504 L 970.949,282.504 L 970.949,283.615 L 940.266,283.615 L 940.266,282.504"/>
    <path style="fill: #00b4ff" d="M 977.165 281.829 L 979.391,278.498 L 983.403,278.498 L 981.171,281.829 L 977.165,281.829z"/>
    <path style="fill: none; fill-opacity:0; stroke-width: 0.02; stroke: #aae6ff" d="M 977.165 281.829 L 979.391,278.498 L 983.403,278.498 L 981.171,281.829 L 977.165,281.829"/>
    <path style="fill: #005a80" d="M 981.171 282.945 L 983.403,280.496 L 983.403,278.498 L 981.171,281.829 L 981.171,282.945z"/>
    <path style="fill: none; fill-opacity:0; stroke-width: 0.02; stroke: #aae6ff" d="M 981.171 282.945 L 983.403,280.496 L 983.403,278.498 L 981.171,281.829 L 981.171,282.945"/>
    <path style="fill: #0096d4" d="M 977.165 281.829 L 981.171,281.829 L 981.171,282.945 L 977.165,282.945 L 977.165,281.829z"/>
    <path style="fill: none; fill-opacity:0; stroke-width: 0.02; stroke: #aae6ff" d="M 977.165 281.829 L 981.171,281.829 L 981.171,282.945 L 977.165,282.945 L 977.165,281.829"/>
    <path style="fill: none; fill-opacity:0; stroke-width: 0.8; stroke: #cf0e30" d="M 969.604 260.693 L 969.599,260.425 L 969.56,260.157 L 969.498,259.884 L 969.409,259.627 L 969.303,259.354 L 969.169,259.103 L 969.002,258.835 L 968.823,258.59 L 968.611,258.338 L 968.382,258.104 L 968.131,257.864 L 967.852,257.635 L 967.556,257.429 L 967.25,257.217 L 966.915,257.022 L 966.563,256.832 L 966.195,256.642 L 965.804,256.469 L 965.414,256.313 L 965.001,256.162 L 964.571,256.034 L 964.142,255.9 L 963.69,255.788 L 963.221,255.688 L 962.752,255.599 L 962.272,255.521 L 961.787,255.459 L 961.302,255.409 L 960.816,255.376 L 960.32,255.359 L 959.829,255.353 L 959.829,255.353 L 959.338,255.359 L 958.83,255.376 L 958.344,255.409 L 957.859,255.459 L 957.368,255.521 L 956.899,255.599 L 956.43,255.688 L 955.973,255.788 L 955.515,255.9 L 955.08,256.034 L 954.651,256.162 L 954.232,256.313 L 953.847,256.469 L 953.451,256.642 L 953.094,256.832 L 952.731,257.022 L 952.402,257.217 L 952.101,257.429 L 951.805,257.635 L 951.526,257.864 L 951.269,258.104 L 951.04,258.338 L 950.834,258.59 L 950.65,258.835 L 950.482,259.103 L 950.36,259.354 L 950.237,259.627 L 950.153,259.884 L 950.097,260.157 L 950.047,260.425 L 950.047,260.693 L 950.047,260.693 L 950.047,260.966 L 950.097,261.229 L 950.153,261.508 L 950.237,261.776 L 950.36,262.032 L 950.482,262.289 L 950.65,262.557 L 950.834,262.802 L 951.04,263.048 L 951.269,263.288 L 951.526,263.528 L 951.805,263.751 L 952.101,263.963 L 952.402,264.18 L 952.731,264.37 L 953.094,264.565 L 953.451,264.75 L 953.847,264.923 L 954.232,265.073 L 954.651,265.224 L 955.08,265.358 L 955.515,265.486 L 955.973,265.603 L 956.43,265.698 L 956.899,265.787 L 957.368,265.871 L 957.859,265.927 L 958.344,265.977 L 958.83,266.011 L 959.338,266.027 L 959.829,266.038 L 959.829,266.038 L 960.32,266.027 L 960.816,266.011 L 961.302,265.977 L 961.787,265.927 L 962.272,265.871 L 962.752,265.787 L 963.221,265.698 L 963.69,265.603 L 964.142,265.486 L 964.571,265.358 L 965.001,265.224 L 965.414,265.073 L 965.804,264.923 L 966.195,264.75 L 966.563,264.565 L 966.915,264.37 L 967.25,264.18 L 967.556,263.963 L 967.852,263.751 L 968.131,263.528 L 968.382,263.288 L 968.611,263.048 L 968.823,262.802 L 969.002,262.557 L 969.169,262.289 L 969.303,262.032 L 969.409,261.776 L 969.498,261.508 L 969.56,261.229 L 969.599,260.966 L 969.604,260.693"/>
    <path style="fill: none; fill-opacity:0; stroke-width: 0.8; stroke: #cf0e30" d="M 967.607 260.693 L 967.601,260.498 L 967.573,260.308 L 967.523,260.118 L 967.45,259.929 L 967.356,259.745 L 967.244,259.555 L 967.116,259.382 L 966.965,259.209 L 966.792,259.03 L 966.597,258.863 L 966.39,258.69 L 966.167,258.534 L 965.933,258.383 L 965.676,258.232 L 965.408,258.093 L 965.129,257.953 L 964.817,257.825 L 964.51,257.708 L 964.186,257.585 L 963.84,257.479 L 963.494,257.39 L 963.132,257.295 L 962.758,257.217 L 962.395,257.15 L 961.993,257.089 L 961.608,257.027 L 961.223,256.988 L 960.816,256.949 L 960.414,256.927 L 960.007,256.921 L 959.616,256.91 L 959.616,256.91 L 959.204,256.921 L 958.802,256.927 L 958.4,256.949 L 957.998,256.988 L 957.597,257.027 L 957.212,257.089 L 956.832,257.15 L 956.458,257.217 L 956.079,257.295 L 955.727,257.39 L 955.365,257.479 L 955.036,257.585 L 954.701,257.708 L 954.399,257.825 L 954.104,257.953 L 953.814,258.093 L 953.546,258.232 L 953.284,258.383 L 953.044,258.534 L 952.82,258.69 L 952.614,258.863 L 952.43,259.03 L 952.257,259.209 L 952.106,259.382 L 951.978,259.555 L 951.861,259.745 L 951.771,259.929 L 951.704,260.118 L 951.649,260.308 L 951.615,260.498 L 951.61,260.693 L 951.61,260.693 L 951.615,260.888 L 951.649,261.078 L 951.704,261.268 L 951.771,261.457 L 951.861,261.647 L 951.978,261.831 L 952.106,262.004 L 952.257,262.183 L 952.43,262.361 L 952.614,262.523 L 952.82,262.696 L 953.044,262.852 L 953.284,263.009 L 953.546,263.154 L 953.814,263.299 L 954.104,263.433 L 954.399,263.567 L 954.701,263.684 L 955.036,263.807 L 955.365,263.913 L 955.727,264.002 L 956.079,264.091 L 956.458,264.18 L 956.832,264.242 L 957.212,264.303 L 957.597,264.365 L 957.998,264.404 L 958.4,264.437 L 958.802,264.471 L 959.204,264.476 L 959.616,264.482 L 959.616,264.482 L 960.007,264.476 L 960.414,264.471 L 960.816,264.437 L 961.223,264.404 L 961.608,264.365 L 961.993,264.303 L 962.395,264.242 L 962.758,264.18 L 963.132,264.091 L 963.494,264.002 L 963.84,263.913 L 964.186,263.807 L 964.51,263.684 L 964.817,263.567 L 965.129,263.433 L 965.408,263.299 L 965.676,263.154 L 965.933,263.009 L 966.167,262.852 L 966.39,262.696 L 966.597,262.523 L 966.792,262.361 L 966.965,262.183 L 967.116,262.004 L 967.244,261.831 L 967.356,261.647 L 967.45,261.457 L 967.523,261.268 L 967.573,261.078 L 967.601,260.888 L 967.607,260.693"/>
  </g>
  <g>
    <line style="fill: none; fill-opacity:0; stroke-width: 2; stroke: #000000" x1="946.714" y1="271.575" x2="817.631" y2="309.453"/>
    <polygon style="fill: #000000" points="810.435,311.565 818.622,303.951 817.631,309.453 821.438,313.547 "/>
    <polygon style="fill: none; fill-opacity:0; stroke-width: 2; stroke: #000000" points="810.435,311.565 818.622,303.951 817.631,309.453 821.438,313.547 "/>
  </g>
  <g>
    <path style="fill: none; fill-opacity:0; stroke-width: 0.6; stroke: #0078aa" d="M 996.261 370.557 L 996.395,370.396 L 996.501,370.217 L 996.602,370.033 L 996.697,369.86 L 996.775,369.665 L 996.825,369.481 L 996.886,369.285 L 996.925,369.096 L 996.953,368.9 L 996.959,368.711 L 996.959,368.51 L 996.953,368.303 L 996.925,368.119 L 996.886,367.918 L 996.836,367.74 L 996.775,367.544 L 996.697,367.36 L 996.602,367.176 L 996.501,366.998 L 996.395,366.83 L 996.261,366.652 L 996.128,366.484 L 995.988,366.322 L 995.826,366.166 L 995.67,366.021 L 995.491,365.87 L 995.307,365.742 L 995.112,365.608 L 994.906,365.497 L 994.699,365.368 L 994.482,365.268 L 994.247,365.167 L 994.03,365.084 L 993.79,365.017 L 993.544,364.939 L 993.304,364.877 L 993.059,364.827 L 992.808,364.782 L 992.557,364.754 L 992.294,364.738 L 992.043,364.715 L 991.781,364.715 L 991.535,364.732 L 991.273,364.738 L 991.022,364.771 L 990.771,364.81 L 990.514,364.855 L 990.28,364.911 L 990.023,364.967 L 989.8,365.05 L 989.56,365.128 L 989.326,365.223 L 989.114,365.324 L 988.902,365.435 L 988.69,365.547 L 988.489,365.675 L 988.305,365.798 L 988.132,365.943 L 987.953,366.094 L 987.791,366.244 L 987.646,366.406 L 987.501,366.568"/>
    <path style="fill: none; fill-opacity:0; stroke-width: 0.4; stroke: #aae6ff" d="M 996.089 370.423 L 996.195,370.256 L 996.301,370.1 L 996.401,369.927 L 996.479,369.743 L 996.546,369.57 L 996.607,369.391 L 996.663,369.207 L 996.697,369.034 L 996.719,368.85 L 996.725,368.66 L 996.725,368.476 L 996.713,368.292 L 996.68,368.102 L 996.646,367.929 L 996.596,367.745 L 996.529,367.567 L 996.457,367.388 L 996.368,367.221 L 996.278,367.053 L 996.161,366.892 L 996.044,366.73 L 995.91,366.568 L 995.77,366.417 L 995.62,366.272 L 995.458,366.138 L 995.285,366.004 L 995.106,365.882 L 994.911,365.748 L 994.727,365.642 L 994.521,365.541 L 994.309,365.441 L 994.097,365.346 L 993.879,365.268 L 993.656,365.195 L 993.421,365.128 L 993.187,365.084 L 992.947,365.028 L 992.702,364.994 L 992.467,364.967 L 992.222,364.944 L 991.971,364.939 L 991.725,364.939 L 991.491,364.944 L 991.245,364.961 L 991.005,364.994 L 990.76,365.028 L 990.531,365.067 L 990.291,365.128 L 990.057,365.19 L 989.834,365.262 L 989.605,365.34 L 989.393,365.435 L 989.186,365.524 L 988.991,365.642 L 988.796,365.748 L 988.595,365.865 L 988.416,365.993 L 988.249,366.127 L 988.087,366.255 L 987.931,366.406 L 987.791,366.551 L 987.669,366.707"/>
    <path style="fill: #00b4ff" d="M 960.272 364.498 L 964.055,360.932 L 992.294,360.932 L 988.517,364.498 L 960.272,364.498z"/>
    <path style="fill: none; fill-opacity:0; stroke-width: 0.02; stroke: #aae6ff" d="M 960.272 364.498 L 964.055,360.932 L 992.294,360.932 L 988.517,364.498 L 960.272,364.498"/>
    <path style="fill: #0096d4" d="M 960.272 364.498 L 988.517,364.498 L 988.517,369.838 L 960.272,369.838 L 960.272,364.498z"/>
    <path style="fill: none; fill-opacity:0; stroke-width: 0.02; stroke: #aae6ff" d="M 960.272 364.498 L 988.517,364.498 L 988.517,369.838 L 960.272,369.838 L 960.272,364.498"/>
    <path style="fill: #005a80" d="M 988.517 369.838 L 992.294,366.06 L 992.294,360.932 L 988.517,364.498 L 988.517,369.838z"/>
    <path style="fill: none; fill-opacity:0; stroke-width: 0.02; stroke: #aae6ff" d="M 988.517 369.838 L 992.294,366.06 L 992.294,360.932 L 988.517,364.498 L 988.517,369.838"/>
    <path style="fill: #000000" d="M 961.176 363.828 L 964.055,360.932 L 991.625,360.932 L 988.746,363.828 L 961.176,363.828z"/>
    <path style="fill: none; fill-opacity:0; stroke-width: 0.02; stroke: #000000" d="M 961.176 363.828 L 964.055,360.932 L 991.625,360.932 L 988.746,363.828 L 961.176,363.828"/>
    <path style="fill: #00b4ff" d="M 960.272 340.912 L 963.391,338.022 L 991.625,338.022 L 988.517,340.912 L 960.272,340.912z"/>
    <path style="fill: none; fill-opacity:0; stroke-width: 0.02; stroke: #aae6ff" d="M 960.272 340.912 L 963.391,338.022 L 991.625,338.022 L 988.517,340.912 L 960.272,340.912"/>
    <path style="fill: #0096d4" d="M 960.272 340.912 L 988.746,340.912 L 988.746,363.376 L 960.272,363.376 L 960.272,340.912z"/>
    <path style="fill: none; fill-opacity:0; stroke-width: 0.02; stroke: #aae6ff" d="M 960.272 340.912 L 988.729,340.912 L 988.729,363.376 L 960.272,363.376 L 960.272,340.912"/>
    <path style="fill: #ffffff" d="M 962.727 343.797 L 986.285,343.797 L 986.285,361.161 L 962.727,361.161 L 962.727,343.797z"/>
    <path style="fill: none; fill-opacity:0; stroke-width: 0.02; stroke: #003c55" d="M 962.727 343.797 L 986.279,343.797 L 986.279,361.156 L 962.727,361.156 L 962.727,343.797"/>
    <path style="fill: #005a80" d="M 988.517 363.164 L 991.625,360.04 L 991.625,338.022 L 988.517,340.912 L 988.517,363.164z"/>
    <path style="fill: none; fill-opacity:0; stroke-width: 0.02; stroke: #aae6ff" d="M 988.517 363.164 L 991.625,360.04 L 991.625,338.022 L 988.517,340.912 L 988.517,363.164"/>
    <path style="fill: #00b4ff" d="M 954.726 374.29 L 959.167,368.722 L 989.85,368.722 L 985.409,374.29 L 954.726,374.29z"/>
    <path style="fill: none; fill-opacity:0; stroke-width: 0.02; stroke: #aae6ff" d="M 954.726 374.29 L 959.167,368.722 L 989.85,368.722 L 985.409,374.29 L 954.726,374.29"/>
    <path style="fill: #005a80" d="M 985.409 375.401 L 989.85,370.73 L 989.85,368.722 L 985.409,374.29 L 985.409,375.401z"/>
    <path style="fill: none; fill-opacity:0; stroke-width: 0.02; stroke: #aae6ff" d="M 985.409 375.401 L 989.85,370.73 L 989.85,368.722 L 985.409,374.29 L 985.409,375.401"/>
    <path style="fill: #0096d4" d="M 954.726 374.29 L 985.409,374.29 L 985.409,375.401 L 954.726,375.401 L 954.726,374.29z"/>
    <path style="fill: none; fill-opacity:0; stroke-width: 0.02; stroke: #aae6ff" d="M 954.726 374.29 L 985.409,374.29 L 985.409,375.401 L 954.726,375.401 L 954.726,374.29"/>
    <path style="fill: #00b4ff" d="M 991.625 373.615 L 993.851,370.284 L 997.863,370.284 L 995.631,373.615 L 991.625,373.615z"/>
    <path style="fill: none; fill-opacity:0; stroke-width: 0.02; stroke: #aae6ff" d="M 991.625 373.615 L 993.851,370.284 L 997.863,370.284 L 995.631,373.615 L 991.625,373.615"/>
    <path style="fill: #005a80" d="M 995.631 374.731 L 997.863,372.282 L 997.863,370.284 L 995.631,373.615 L 995.631,374.731z"/>
    <path style="fill: none; fill-opacity:0; stroke-width: 0.02; stroke: #aae6ff" d="M 995.631 374.731 L 997.863,372.282 L 997.863,370.284 L 995.631,373.615 L 995.631,374.731"/>
    <path style="fill: #0096d4" d="M 991.625 373.615 L 995.631,373.615 L 995.631,374.731 L 991.625,374.731 L 991.625,373.615z"/>
    <path style="fill: none; fill-opacity:0; stroke-width: 0.02; stroke: #aae6ff" d="M 991.625 373.615 L 995.631,373.615 L 995.631,374.731 L 991.625,374.731 L 991.625,373.615"/>
    <path style="fill: none; fill-opacity:0; stroke-width: 0.8; stroke: #cf0e30" d="M 984.064 352.479 L 984.059,352.211 L 984.02,351.943 L 983.958,351.67 L 983.869,351.413 L 983.763,351.14 L 983.629,350.889 L 983.462,350.621 L 983.283,350.376 L 983.071,350.124 L 982.842,349.89 L 982.591,349.65 L 982.312,349.421 L 982.016,349.215 L 981.71,349.003 L 981.375,348.808 L 981.023,348.618 L 980.655,348.428 L 980.264,348.255 L 979.874,348.099 L 979.461,347.948 L 979.031,347.82 L 978.602,347.686 L 978.15,347.574 L 977.681,347.474 L 977.212,347.385 L 976.732,347.307 L 976.247,347.245 L 975.762,347.195 L 975.276,347.162 L 974.78,347.145 L 974.289,347.139 L 974.289,347.139 L 973.798,347.145 L 973.29,347.162 L 972.804,347.195 L 972.319,347.245 L 971.828,347.307 L 971.359,347.385 L 970.89,347.474 L 970.433,347.574 L 969.975,347.686 L 969.54,347.82 L 969.111,347.948 L 968.692,348.099 L 968.307,348.255 L 967.911,348.428 L 967.554,348.618 L 967.191,348.808 L 966.862,349.003 L 966.561,349.215 L 966.265,349.421 L 965.986,349.65 L 965.729,349.89 L 965.5,350.124 L 965.294,350.376 L 965.11,350.621 L 964.942,350.889 L 964.82,351.14 L 964.697,351.413 L 964.613,351.67 L 964.557,351.943 L 964.507,352.211 L 964.507,352.479 L 964.507,352.479 L 964.507,352.752 L 964.557,353.015 L 964.613,353.294 L 964.697,353.562 L 964.82,353.818 L 964.942,354.075 L 965.11,354.343 L 965.294,354.588 L 965.5,354.834 L 965.729,355.074 L 965.986,355.314 L 966.265,355.537 L 966.561,355.749 L 966.862,355.966 L 967.191,356.156 L 967.554,356.351 L 967.911,356.536 L 968.307,356.709 L 968.692,356.859 L 969.111,357.01 L 969.54,357.144 L 969.975,357.272 L 970.433,357.389 L 970.89,357.484 L 971.359,357.573 L 971.828,357.657 L 972.319,357.713 L 972.804,357.763 L 973.29,357.797 L 973.798,357.813 L 974.289,357.824 L 974.289,357.824 L 974.78,357.813 L 975.276,357.797 L 975.762,357.763 L 976.247,357.713 L 976.732,357.657 L 977.212,357.573 L 977.681,357.484 L 978.15,357.389 L 978.602,357.272 L 979.031,357.144 L 979.461,357.01 L 979.874,356.859 L 980.264,356.709 L 980.655,356.536 L 981.023,356.351 L 981.375,356.156 L 981.71,355.966 L 982.016,355.749 L 982.312,355.537 L 982.591,355.314 L 982.842,355.074 L 983.071,354.834 L 983.283,354.588 L 983.462,354.343 L 983.629,354.075 L 983.763,353.818 L 983.869,353.562 L 983.958,353.294 L 984.02,353.015 L 984.059,352.752 L 984.064,352.479"/>
    <path style="fill: none; fill-opacity:0; stroke-width: 0.8; stroke: #cf0e30" d="M 982.067 352.479 L 982.061,352.284 L 982.033,352.094 L 981.983,351.904 L 981.91,351.715 L 981.816,351.531 L 981.704,351.341 L 981.576,351.168 L 981.425,350.995 L 981.252,350.816 L 981.057,350.649 L 980.85,350.476 L 980.627,350.32 L 980.393,350.169 L 980.136,350.018 L 979.868,349.879 L 979.589,349.739 L 979.277,349.611 L 978.97,349.494 L 978.646,349.371 L 978.3,349.265 L 977.954,349.176 L 977.592,349.081 L 977.218,349.003 L 976.855,348.936 L 976.453,348.875 L 976.068,348.813 L 975.683,348.774 L 975.276,348.735 L 974.874,348.713 L 974.467,348.707 L 974.076,348.696 L 974.076,348.696 L 973.664,348.707 L 973.262,348.713 L 972.86,348.735 L 972.458,348.774 L 972.057,348.813 L 971.672,348.875 L 971.292,348.936 L 970.918,349.003 L 970.539,349.081 L 970.187,349.176 L 969.825,349.265 L 969.496,349.371 L 969.161,349.494 L 968.859,349.611 L 968.564,349.739 L 968.274,349.879 L 968.006,350.018 L 967.744,350.169 L 967.504,350.32 L 967.28,350.476 L 967.074,350.649 L 966.89,350.816 L 966.717,350.995 L 966.566,351.168 L 966.438,351.341 L 966.321,351.531 L 966.231,351.715 L 966.164,351.904 L 966.109,352.094 L 966.075,352.284 L 966.07,352.479 L 966.07,352.479 L 966.075,352.674 L 966.109,352.864 L 966.164,353.054 L 966.231,353.243 L 966.321,353.433 L 966.438,353.617 L 966.566,353.79 L 966.717,353.969 L 966.89,354.147 L 967.074,354.309 L 967.28,354.482 L 967.504,354.638 L 967.744,354.795 L 968.006,354.94 L 968.274,355.085 L 968.564,355.219 L 968.859,355.353 L 969.161,355.47 L 969.496,355.593 L 969.825,355.699 L 970.187,355.788 L 970.539,355.877 L 970.918,355.966 L 971.292,356.028 L 971.672,356.089 L 972.057,356.151 L 972.458,356.19 L 972.86,356.223 L 973.262,356.257 L 973.664,356.262 L 974.076,356.268 L 974.076,356.268 L 974.467,356.262 L 974.874,356.257 L 975.276,356.223 L 975.683,356.19 L 976.068,356.151 L 976.453,356.089 L 976.855,356.028 L 977.218,355.966 L 977.592,355.877 L 977.954,355.788 L 978.3,355.699 L 978.646,355.593 L 978.97,355.47 L 979.277,355.353 L 979.589,355.219 L 979.868,355.085 L 980.136,354.94 L 980.393,354.795 L 980.627,354.638 L 980.85,354.482 L 981.057,354.309 L 981.252,354.147 L 981.425,353.969 L 981.576,353.79 L 981.704,353.617 L 981.816,353.433 L 981.91,353.243 L 981.983,353.054 L 982.033,352.864 L 982.061,352.674 L 982.067,352.479"/>
  </g>
  <g>
    <line style="fill: none; fill-opacity:0; stroke-width: 2; stroke: #000000" x1="960.284" y1="357.937" x2="815.54" y2="351.839"/>
    <polygon style="fill: #000000" points="808.047,351.523 818.248,346.948 815.54,351.839 817.827,356.94 "/>
    <polygon style="fill: none; fill-opacity:0; stroke-width: 2; stroke: #000000" points="808.047,351.523 818.248,346.948 815.54,351.839 817.827,356.94 "/>
  </g>
  <g>
    <path style="fill: none; fill-opacity:0; stroke-width: 0.6; stroke: #0078aa" d="M 981.775 453.585 L 981.909,453.424 L 982.015,453.245 L 982.116,453.061 L 982.211,452.888 L 982.289,452.693 L 982.339,452.509 L 982.4,452.313 L 982.439,452.124 L 982.467,451.928 L 982.473,451.739 L 982.473,451.538 L 982.467,451.331 L 982.439,451.147 L 982.4,450.946 L 982.35,450.768 L 982.289,450.572 L 982.211,450.388 L 982.116,450.204 L 982.015,450.026 L 981.909,449.858 L 981.775,449.68 L 981.642,449.512 L 981.502,449.35 L 981.34,449.194 L 981.184,449.049 L 981.005,448.898 L 980.821,448.77 L 980.626,448.636 L 980.42,448.525 L 980.213,448.396 L 979.996,448.296 L 979.761,448.195 L 979.544,448.112 L 979.304,448.045 L 979.058,447.967 L 978.818,447.905 L 978.573,447.855 L 978.322,447.81 L 978.071,447.782 L 977.808,447.766 L 977.557,447.743 L 977.295,447.743 L 977.049,447.76 L 976.787,447.766 L 976.536,447.799 L 976.285,447.838 L 976.028,447.883 L 975.794,447.939 L 975.537,447.995 L 975.314,448.078 L 975.074,448.156 L 974.84,448.251 L 974.628,448.352 L 974.416,448.463 L 974.204,448.575 L 974.003,448.703 L 973.819,448.826 L 973.646,448.971 L 973.467,449.122 L 973.305,449.272 L 973.16,449.434 L 973.015,449.596"/>
    <path style="fill: none; fill-opacity:0; stroke-width: 0.4; stroke: #aae6ff" d="M 981.603 453.451 L 981.709,453.284 L 981.815,453.128 L 981.915,452.955 L 981.993,452.771 L 982.06,452.598 L 982.121,452.419 L 982.177,452.235 L 982.211,452.062 L 982.233,451.878 L 982.239,451.688 L 982.239,451.504 L 982.227,451.32 L 982.194,451.13 L 982.16,450.957 L 982.11,450.773 L 982.043,450.595 L 981.971,450.416 L 981.882,450.249 L 981.792,450.081 L 981.675,449.92 L 981.558,449.758 L 981.424,449.596 L 981.284,449.445 L 981.134,449.3 L 980.972,449.166 L 980.799,449.032 L 980.62,448.91 L 980.425,448.776 L 980.241,448.67 L 980.035,448.569 L 979.823,448.469 L 979.611,448.374 L 979.393,448.296 L 979.17,448.223 L 978.935,448.156 L 978.701,448.112 L 978.461,448.056 L 978.216,448.022 L 977.981,447.995 L 977.736,447.972 L 977.485,447.967 L 977.239,447.967 L 977.005,447.972 L 976.759,447.989 L 976.519,448.022 L 976.274,448.056 L 976.045,448.095 L 975.805,448.156 L 975.571,448.218 L 975.348,448.29 L 975.119,448.368 L 974.907,448.463 L 974.7,448.552 L 974.505,448.67 L 974.31,448.776 L 974.109,448.893 L 973.93,449.021 L 973.763,449.155 L 973.601,449.283 L 973.445,449.434 L 973.305,449.579 L 973.183,449.735"/>
    <path style="fill: #00b4ff" d="M 945.786 447.526 L 949.569,443.96 L 977.808,443.96 L 974.031,447.526 L 945.786,447.526z"/>
    <path style="fill: none; fill-opacity:0; stroke-width: 0.02; stroke: #aae6ff" d="M 945.786 447.526 L 949.569,443.96 L 977.808,443.96 L 974.031,447.526 L 945.786,447.526"/>
    <path style="fill: #0096d4" d="M 945.786 447.526 L 974.031,447.526 L 974.031,452.866 L 945.786,452.866 L 945.786,447.526z"/>
    <path style="fill: none; fill-opacity:0; stroke-width: 0.02; stroke: #aae6ff" d="M 945.786 447.526 L 974.031,447.526 L 974.031,452.866 L 945.786,452.866 L 945.786,447.526"/>
    <path style="fill: #005a80" d="M 974.031 452.866 L 977.808,449.088 L 977.808,443.96 L 974.031,447.526 L 974.031,452.866z"/>
    <path style="fill: none; fill-opacity:0; stroke-width: 0.02; stroke: #aae6ff" d="M 974.031 452.866 L 977.808,449.088 L 977.808,443.96 L 974.031,447.526 L 974.031,452.866"/>
    <path style="fill: #000000" d="M 946.69 446.856 L 949.569,443.96 L 977.139,443.96 L 974.26,446.856 L 946.69,446.856z"/>
    <path style="fill: none; fill-opacity:0; stroke-width: 0.02; stroke: #000000" d="M 946.69 446.856 L 949.569,443.96 L 977.139,443.96 L 974.26,446.856 L 946.69,446.856"/>
    <path style="fill: #00b4ff" d="M 945.786 423.94 L 948.905,421.05 L 977.139,421.05 L 974.031,423.94 L 945.786,423.94z"/>
    <path style="fill: none; fill-opacity:0; stroke-width: 0.02; stroke: #aae6ff" d="M 945.786 423.94 L 948.905,421.05 L 977.139,421.05 L 974.031,423.94 L 945.786,423.94"/>
    <path style="fill: #0096d4" d="M 945.786 423.94 L 974.26,423.94 L 974.26,446.404 L 945.786,446.404 L 945.786,423.94z"/>
    <path style="fill: none; fill-opacity:0; stroke-width: 0.02; stroke: #aae6ff" d="M 945.786 423.94 L 974.243,423.94 L 974.243,446.404 L 945.786,446.404 L 945.786,423.94"/>
    <path style="fill: #ffffff" d="M 948.241 426.825 L 971.799,426.825 L 971.799,444.189 L 948.241,444.189 L 948.241,426.825z"/>
    <path style="fill: none; fill-opacity:0; stroke-width: 0.02; stroke: #003c55" d="M 948.241 426.825 L 971.793,426.825 L 971.793,444.184 L 948.241,444.184 L 948.241,426.825"/>
    <path style="fill: #005a80" d="M 974.031 446.192 L 977.139,443.068 L 977.139,421.05 L 974.031,423.94 L 974.031,446.192z"/>
    <path style="fill: none; fill-opacity:0; stroke-width: 0.02; stroke: #aae6ff" d="M 974.031 446.192 L 977.139,443.068 L 977.139,421.05 L 974.031,423.94 L 974.031,446.192"/>
    <path style="fill: #00b4ff" d="M 940.24 457.318 L 944.681,451.75 L 975.364,451.75 L 970.923,457.318 L 940.24,457.318z"/>
    <path style="fill: none; fill-opacity:0; stroke-width: 0.02; stroke: #aae6ff" d="M 940.24 457.318 L 944.681,451.75 L 975.364,451.75 L 970.923,457.318 L 940.24,457.318"/>
    <path style="fill: #005a80" d="M 970.923 458.429 L 975.364,453.758 L 975.364,451.75 L 970.923,457.318 L 970.923,458.429z"/>
    <path style="fill: none; fill-opacity:0; stroke-width: 0.02; stroke: #aae6ff" d="M 970.923 458.429 L 975.364,453.758 L 975.364,451.75 L 970.923,457.318 L 970.923,458.429"/>
    <path style="fill: #0096d4" d="M 940.24 457.318 L 970.923,457.318 L 970.923,458.429 L 940.24,458.429 L 940.24,457.318z"/>
    <path style="fill: none; fill-opacity:0; stroke-width: 0.02; stroke: #aae6ff" d="M 940.24 457.318 L 970.923,457.318 L 970.923,458.429 L 940.24,458.429 L 940.24,457.318"/>
    <path style="fill: #00b4ff" d="M 977.139 456.643 L 979.365,453.312 L 983.377,453.312 L 981.145,456.643 L 977.139,456.643z"/>
    <path style="fill: none; fill-opacity:0; stroke-width: 0.02; stroke: #aae6ff" d="M 977.139 456.643 L 979.365,453.312 L 983.377,453.312 L 981.145,456.643 L 977.139,456.643"/>
    <path style="fill: #005a80" d="M 981.145 457.759 L 983.377,455.31 L 983.377,453.312 L 981.145,456.643 L 981.145,457.759z"/>
    <path style="fill: none; fill-opacity:0; stroke-width: 0.02; stroke: #aae6ff" d="M 981.145 457.759 L 983.377,455.31 L 983.377,453.312 L 981.145,456.643 L 981.145,457.759"/>
    <path style="fill: #0096d4" d="M 977.139 456.643 L 981.145,456.643 L 981.145,457.759 L 977.139,457.759 L 977.139,456.643z"/>
    <path style="fill: none; fill-opacity:0; stroke-width: 0.02; stroke: #aae6ff" d="M 977.139 456.643 L 981.145,456.643 L 981.145,457.759 L 977.139,457.759 L 977.139,456.643"/>
    <path style="fill: none; fill-opacity:0; stroke-width: 0.8; stroke: #cf0e30" d="M 969.578 435.507 L 969.573,435.239 L 969.534,434.971 L 969.472,434.698 L 969.383,434.441 L 969.277,434.168 L 969.143,433.917 L 968.976,433.649 L 968.797,433.404 L 968.585,433.152 L 968.356,432.918 L 968.105,432.678 L 967.826,432.449 L 967.53,432.243 L 967.224,432.031 L 966.889,431.836 L 966.537,431.646 L 966.169,431.456 L 965.778,431.283 L 965.388,431.127 L 964.975,430.976 L 964.545,430.848 L 964.116,430.714 L 963.664,430.602 L 963.195,430.502 L 962.726,430.413 L 962.246,430.335 L 961.761,430.273 L 961.276,430.223 L 960.79,430.19 L 960.294,430.173 L 959.803,430.167 L 959.803,430.167 L 959.312,430.173 L 958.804,430.19 L 958.318,430.223 L 957.833,430.273 L 957.342,430.335 L 956.873,430.413 L 956.404,430.502 L 955.947,430.602 L 955.489,430.714 L 955.054,430.848 L 954.625,430.976 L 954.206,431.127 L 953.821,431.283 L 953.425,431.456 L 953.068,431.646 L 952.705,431.836 L 952.376,432.031 L 952.075,432.243 L 951.779,432.449 L 951.5,432.678 L 951.243,432.918 L 951.014,433.152 L 950.808,433.404 L 950.624,433.649 L 950.456,433.917 L 950.334,434.168 L 950.211,434.441 L 950.127,434.698 L 950.071,434.971 L 950.021,435.239 L 950.021,435.507 L 950.021,435.507 L 950.021,435.78 L 950.071,436.043 L 950.127,436.322 L 950.211,436.59 L 950.334,436.846 L 950.456,437.103 L 950.624,437.371 L 950.808,437.616 L 951.014,437.862 L 951.243,438.102 L 951.5,438.342 L 951.779,438.565 L 952.075,438.777 L 952.376,438.994 L 952.705,439.184 L 953.068,439.379 L 953.425,439.564 L 953.821,439.737 L 954.206,439.887 L 954.625,440.038 L 955.054,440.172 L 955.489,440.3 L 955.947,440.417 L 956.404,440.512 L 956.873,440.601 L 957.342,440.685 L 957.833,440.741 L 958.318,440.791 L 958.804,440.825 L 959.312,440.841 L 959.803,440.852 L 959.803,440.852 L 960.294,440.841 L 960.79,440.825 L 961.276,440.791 L 961.761,440.741 L 962.246,440.685 L 962.726,440.601 L 963.195,440.512 L 963.664,440.417 L 964.116,440.3 L 964.545,440.172 L 964.975,440.038 L 965.388,439.887 L 965.778,439.737 L 966.169,439.564 L 966.537,439.379 L 966.889,439.184 L 967.224,438.994 L 967.53,438.777 L 967.826,438.565 L 968.105,438.342 L 968.356,438.102 L 968.585,437.862 L 968.797,437.616 L 968.976,437.371 L 969.143,437.103 L 969.277,436.846 L 969.383,436.59 L 969.472,436.322 L 969.534,436.043 L 969.573,435.78 L 969.578,435.507"/>
    <path style="fill: none; fill-opacity:0; stroke-width: 0.8; stroke: #cf0e30" d="M 967.581 435.507 L 967.575,435.312 L 967.547,435.122 L 967.497,434.932 L 967.424,434.743 L 967.33,434.559 L 967.218,434.369 L 967.09,434.196 L 966.939,434.023 L 966.766,433.844 L 966.571,433.677 L 966.364,433.504 L 966.141,433.348 L 965.907,433.197 L 965.65,433.046 L 965.382,432.907 L 965.103,432.767 L 964.791,432.639 L 964.484,432.522 L 964.16,432.399 L 963.814,432.293 L 963.468,432.204 L 963.106,432.109 L 962.732,432.031 L 962.369,431.964 L 961.967,431.903 L 961.582,431.841 L 961.197,431.802 L 960.79,431.763 L 960.388,431.741 L 959.981,431.735 L 959.59,431.724 L 959.59,431.724 L 959.178,431.735 L 958.776,431.741 L 958.374,431.763 L 957.972,431.802 L 957.571,431.841 L 957.186,431.903 L 956.806,431.964 L 956.432,432.031 L 956.053,432.109 L 955.701,432.204 L 955.339,432.293 L 955.01,432.399 L 954.675,432.522 L 954.373,432.639 L 954.078,432.767 L 953.788,432.907 L 953.52,433.046 L 953.258,433.197 L 953.018,433.348 L 952.794,433.504 L 952.588,433.677 L 952.404,433.844 L 952.231,434.023 L 952.08,434.196 L 951.952,434.369 L 951.835,434.559 L 951.745,434.743 L 951.678,434.932 L 951.623,435.122 L 951.589,435.312 L 951.584,435.507 L 951.584,435.507 L 951.589,435.702 L 951.623,435.892 L 951.678,436.082 L 951.745,436.271 L 951.835,436.461 L 951.952,436.645 L 952.08,436.818 L 952.231,436.997 L 952.404,437.175 L 952.588,437.337 L 952.794,437.51 L 953.018,437.666 L 953.258,437.823 L 953.52,437.968 L 953.788,438.113 L 954.078,438.247 L 954.373,438.381 L 954.675,438.498 L 955.01,438.621 L 955.339,438.727 L 955.701,438.816 L 956.053,438.905 L 956.432,438.994 L 956.806,439.056 L 957.186,439.117 L 957.571,439.179 L 957.972,439.218 L 958.374,439.251 L 958.776,439.285 L 959.178,439.29 L 959.59,439.296 L 959.59,439.296 L 959.981,439.29 L 960.388,439.285 L 960.79,439.251 L 961.197,439.218 L 961.582,439.179 L 961.967,439.117 L 962.369,439.056 L 962.732,438.994 L 963.106,438.905 L 963.468,438.816 L 963.814,438.727 L 964.16,438.621 L 964.484,438.498 L 964.791,438.381 L 965.103,438.247 L 965.382,438.113 L 965.65,437.968 L 965.907,437.823 L 966.141,437.666 L 966.364,437.51 L 966.571,437.337 L 966.766,437.175 L 966.939,436.997 L 967.09,436.818 L 967.218,436.645 L 967.33,436.461 L 967.424,436.271 L 967.497,436.082 L 967.547,435.892 L 967.575,435.702 L 967.581,435.507"/>
  </g>
  <g>
    <line style="fill: none; fill-opacity:0; stroke-width: 2; stroke: #000000" x1="954.251" y1="438.707" x2="804.865" y2="386.425"/>
    <polygon style="fill: #000000" points="797.786,383.947 808.876,382.531 804.865,386.425 805.573,391.97 "/>
    <polygon style="fill: none; fill-opacity:0; stroke-width: 2; stroke: #000000" points="797.786,383.947 808.876,382.531 804.865,386.425 805.573,391.97 "/>
  </g>
  <g>
    <path style="fill: none; fill-opacity:0; stroke-width: 0.6; stroke: #0078aa" d="M 900.127 581.533 L 900.261,581.372 L 900.367,581.193 L 900.468,581.009 L 900.563,580.836 L 900.641,580.641 L 900.691,580.457 L 900.752,580.261 L 900.791,580.072 L 900.819,579.876 L 900.825,579.687 L 900.825,579.486 L 900.819,579.279 L 900.791,579.095 L 900.752,578.894 L 900.702,578.716 L 900.641,578.52 L 900.563,578.336 L 900.468,578.152 L 900.367,577.974 L 900.261,577.806 L 900.127,577.628 L 899.994,577.46 L 899.854,577.298 L 899.692,577.142 L 899.536,576.997 L 899.357,576.846 L 899.173,576.718 L 898.978,576.584 L 898.772,576.473 L 898.565,576.344 L 898.348,576.244 L 898.113,576.143 L 897.896,576.06 L 897.656,575.993 L 897.41,575.915 L 897.17,575.853 L 896.925,575.803 L 896.674,575.758 L 896.423,575.73 L 896.16,575.714 L 895.909,575.691 L 895.647,575.691 L 895.401,575.708 L 895.139,575.714 L 894.888,575.747 L 894.637,575.786 L 894.38,575.831 L 894.146,575.887 L 893.889,575.943 L 893.666,576.026 L 893.426,576.104 L 893.192,576.199 L 892.98,576.3 L 892.768,576.411 L 892.556,576.523 L 892.355,576.651 L 892.171,576.774 L 891.998,576.919 L 891.819,577.07 L 891.657,577.22 L 891.512,577.382 L 891.367,577.544"/>
    <path style="fill: none; fill-opacity:0; stroke-width: 0.4; stroke: #aae6ff" d="M 899.955 581.399 L 900.061,581.232 L 900.167,581.076 L 900.267,580.903 L 900.345,580.719 L 900.412,580.546 L 900.473,580.367 L 900.529,580.183 L 900.563,580.01 L 900.585,579.826 L 900.591,579.636 L 900.591,579.452 L 900.579,579.268 L 900.546,579.078 L 900.512,578.905 L 900.462,578.721 L 900.395,578.543 L 900.323,578.364 L 900.234,578.197 L 900.144,578.029 L 900.027,577.868 L 899.91,577.706 L 899.776,577.544 L 899.636,577.393 L 899.486,577.248 L 899.324,577.114 L 899.151,576.98 L 898.972,576.858 L 898.777,576.724 L 898.593,576.618 L 898.387,576.517 L 898.175,576.417 L 897.963,576.322 L 897.745,576.244 L 897.522,576.171 L 897.287,576.104 L 897.053,576.06 L 896.813,576.004 L 896.568,575.97 L 896.333,575.943 L 896.088,575.92 L 895.837,575.915 L 895.591,575.915 L 895.357,575.92 L 895.111,575.937 L 894.871,575.97 L 894.626,576.004 L 894.397,576.043 L 894.157,576.104 L 893.923,576.166 L 893.7,576.238 L 893.471,576.316 L 893.259,576.411 L 893.052,576.5 L 892.857,576.618 L 892.662,576.724 L 892.461,576.841 L 892.282,576.969 L 892.115,577.103 L 891.953,577.231 L 891.797,577.382 L 891.657,577.527 L 891.535,577.683"/>
    <path style="fill: #00b4ff" d="M 864.138 575.474 L 867.921,571.908 L 896.16,571.908 L 892.383,575.474 L 864.138,575.474z"/>
    <path style="fill: none; fill-opacity:0; stroke-width: 0.02; stroke: #aae6ff" d="M 864.138 575.474 L 867.921,571.908 L 896.16,571.908 L 892.383,575.474 L 864.138,575.474"/>
    <path style="fill: #0096d4" d="M 864.138 575.474 L 892.383,575.474 L 892.383,580.814 L 864.138,580.814 L 864.138,575.474z"/>
    <path style="fill: none; fill-opacity:0; stroke-width: 0.02; stroke: #aae6ff" d="M 864.138 575.474 L 892.383,575.474 L 892.383,580.814 L 864.138,580.814 L 864.138,575.474"/>
    <path style="fill: #005a80" d="M 892.383 580.814 L 896.16,577.036 L 896.16,571.908 L 892.383,575.474 L 892.383,580.814z"/>
    <path style="fill: none; fill-opacity:0; stroke-width: 0.02; stroke: #aae6ff" d="M 892.383 580.814 L 896.16,577.036 L 896.16,571.908 L 892.383,575.474 L 892.383,580.814"/>
    <path style="fill: #000000" d="M 865.042 574.804 L 867.921,571.908 L 895.491,571.908 L 892.612,574.804 L 865.042,574.804z"/>
    <path style="fill: none; fill-opacity:0; stroke-width: 0.02; stroke: #000000" d="M 865.042 574.804 L 867.921,571.908 L 895.491,571.908 L 892.612,574.804 L 865.042,574.804"/>
    <path style="fill: #00b4ff" d="M 864.138 551.888 L 867.257,548.998 L 895.491,548.998 L 892.383,551.888 L 864.138,551.888z"/>
    <path style="fill: none; fill-opacity:0; stroke-width: 0.02; stroke: #aae6ff" d="M 864.138 551.888 L 867.257,548.998 L 895.491,548.998 L 892.383,551.888 L 864.138,551.888"/>
    <path style="fill: #0096d4" d="M 864.138 551.888 L 892.612,551.888 L 892.612,574.352 L 864.138,574.352 L 864.138,551.888z"/>
    <path style="fill: none; fill-opacity:0; stroke-width: 0.02; stroke: #aae6ff" d="M 864.138 551.888 L 892.595,551.888 L 892.595,574.352 L 864.138,574.352 L 864.138,551.888"/>
    <path style="fill: #ffffff" d="M 866.593 554.773 L 890.151,554.773 L 890.151,572.137 L 866.593,572.137 L 866.593,554.773z"/>
    <path style="fill: none; fill-opacity:0; stroke-width: 0.02; stroke: #003c55" d="M 866.593 554.773 L 890.145,554.773 L 890.145,572.132 L 866.593,572.132 L 866.593,554.773"/>
    <path style="fill: #005a80" d="M 892.383 574.14 L 895.491,571.016 L 895.491,548.998 L 892.383,551.888 L 892.383,574.14z"/>
    <path style="fill: none; fill-opacity:0; stroke-width: 0.02; stroke: #aae6ff" d="M 892.383 574.14 L 895.491,571.016 L 895.491,548.998 L 892.383,551.888 L 892.383,574.14"/>
    <path style="fill: #00b4ff" d="M 858.592 585.266 L 863.033,579.698 L 893.716,579.698 L 889.275,585.266 L 858.592,585.266z"/>
    <path style="fill: none; fill-opacity:0; stroke-width: 0.02; stroke: #aae6ff" d="M 858.592 585.266 L 863.033,579.698 L 893.716,579.698 L 889.275,585.266 L 858.592,585.266"/>
    <path style="fill: #005a80" d="M 889.275 586.377 L 893.716,581.706 L 893.716,579.698 L 889.275,585.266 L 889.275,586.377z"/>
    <path style="fill: none; fill-opacity:0; stroke-width: 0.02; stroke: #aae6ff" d="M 889.275 586.377 L 893.716,581.706 L 893.716,579.698 L 889.275,585.266 L 889.275,586.377"/>
    <path style="fill: #0096d4" d="M 858.592 585.266 L 889.275,585.266 L 889.275,586.377 L 858.592,586.377 L 858.592,585.266z"/>
    <path style="fill: none; fill-opacity:0; stroke-width: 0.02; stroke: #aae6ff" d="M 858.592 585.266 L 889.275,585.266 L 889.275,586.377 L 858.592,586.377 L 858.592,585.266"/>
    <path style="fill: #00b4ff" d="M 895.491 584.591 L 897.717,581.26 L 901.729,581.26 L 899.497,584.591 L 895.491,584.591z"/>
    <path style="fill: none; fill-opacity:0; stroke-width: 0.02; stroke: #aae6ff" d="M 895.491 584.591 L 897.717,581.26 L 901.729,581.26 L 899.497,584.591 L 895.491,584.591"/>
    <path style="fill: #005a80" d="M 899.497 585.707 L 901.729,583.258 L 901.729,581.26 L 899.497,584.591 L 899.497,585.707z"/>
    <path style="fill: none; fill-opacity:0; stroke-width: 0.02; stroke: #aae6ff" d="M 899.497 585.707 L 901.729,583.258 L 901.729,581.26 L 899.497,584.591 L 899.497,585.707"/>
    <path style="fill: #0096d4" d="M 895.491 584.591 L 899.497,584.591 L 899.497,585.707 L 895.491,585.707 L 895.491,584.591z"/>
    <path style="fill: none; fill-opacity:0; stroke-width: 0.02; stroke: #aae6ff" d="M 895.491 584.591 L 899.497,584.591 L 899.497,585.707 L 895.491,585.707 L 895.491,584.591"/>
    <path style="fill: none; fill-opacity:0; stroke-width: 0.8; stroke: #cf0e30" d="M 887.93 563.455 L 887.925,563.187 L 887.886,562.919 L 887.824,562.646 L 887.735,562.389 L 887.629,562.116 L 887.495,561.865 L 887.328,561.597 L 887.149,561.352 L 886.937,561.1 L 886.708,560.866 L 886.457,560.626 L 886.178,560.397 L 885.882,560.191 L 885.576,559.979 L 885.241,559.784 L 884.889,559.594 L 884.521,559.404 L 884.13,559.231 L 883.74,559.075 L 883.327,558.924 L 882.897,558.796 L 882.468,558.662 L 882.016,558.55 L 881.547,558.45 L 881.078,558.361 L 880.598,558.283 L 880.113,558.221 L 879.628,558.171 L 879.142,558.138 L 878.646,558.121 L 878.155,558.115 L 878.155,558.115 L 877.664,558.121 L 877.156,558.138 L 876.67,558.171 L 876.185,558.221 L 875.694,558.283 L 875.225,558.361 L 874.756,558.45 L 874.299,558.55 L 873.841,558.662 L 873.406,558.796 L 872.977,558.924 L 872.558,559.075 L 872.173,559.231 L 871.777,559.404 L 871.42,559.594 L 871.057,559.784 L 870.728,559.979 L 870.427,560.191 L 870.131,560.397 L 869.852,560.626 L 869.595,560.866 L 869.366,561.1 L 869.16,561.352 L 868.976,561.597 L 868.808,561.865 L 868.686,562.116 L 868.563,562.389 L 868.479,562.646 L 868.423,562.919 L 868.373,563.187 L 868.373,563.455 L 868.373,563.455 L 868.373,563.728 L 868.423,563.991 L 868.479,564.27 L 868.563,564.538 L 868.686,564.794 L 868.808,565.051 L 868.976,565.319 L 869.16,565.564 L 869.366,565.81 L 869.595,566.05 L 869.852,566.29 L 870.131,566.513 L 870.427,566.725 L 870.728,566.942 L 871.057,567.132 L 871.42,567.327 L 871.777,567.512 L 872.173,567.685 L 872.558,567.835 L 872.977,567.986 L 873.406,568.12 L 873.841,568.248 L 874.299,568.365 L 874.756,568.46 L 875.225,568.549 L 875.694,568.633 L 876.185,568.689 L 876.67,568.739 L 877.156,568.773 L 877.664,568.789 L 878.155,568.8 L 878.155,568.8 L 878.646,568.789 L 879.142,568.773 L 879.628,568.739 L 880.113,568.689 L 880.598,568.633 L 881.078,568.549 L 881.547,568.46 L 882.016,568.365 L 882.468,568.248 L 882.897,568.12 L 883.327,567.986 L 883.74,567.835 L 884.13,567.685 L 884.521,567.512 L 884.889,567.327 L 885.241,567.132 L 885.576,566.942 L 885.882,566.725 L 886.178,566.513 L 886.457,566.29 L 886.708,566.05 L 886.937,565.81 L 887.149,565.564 L 887.328,565.319 L 887.495,565.051 L 887.629,564.794 L 887.735,564.538 L 887.824,564.27 L 887.886,563.991 L 887.925,563.728 L 887.93,563.455"/>
    <path style="fill: none; fill-opacity:0; stroke-width: 0.8; stroke: #cf0e30" d="M 885.933 563.455 L 885.927,563.26 L 885.899,563.07 L 885.849,562.88 L 885.776,562.691 L 885.682,562.507 L 885.57,562.317 L 885.442,562.144 L 885.291,561.971 L 885.118,561.792 L 884.923,561.625 L 884.716,561.452 L 884.493,561.296 L 884.259,561.145 L 884.002,560.994 L 883.734,560.855 L 883.455,560.715 L 883.143,560.587 L 882.836,560.47 L 882.512,560.347 L 882.166,560.241 L 881.82,560.152 L 881.458,560.057 L 881.084,559.979 L 880.721,559.912 L 880.319,559.851 L 879.934,559.789 L 879.549,559.75 L 879.142,559.711 L 878.74,559.689 L 878.333,559.683 L 877.942,559.672 L 877.942,559.672 L 877.53,559.683 L 877.128,559.689 L 876.726,559.711 L 876.324,559.75 L 875.923,559.789 L 875.538,559.851 L 875.158,559.912 L 874.784,559.979 L 874.405,560.057 L 874.053,560.152 L 873.691,560.241 L 873.362,560.347 L 873.027,560.47 L 872.725,560.587 L 872.43,560.715 L 872.14,560.855 L 871.872,560.994 L 871.61,561.145 L 871.37,561.296 L 871.146,561.452 L 870.94,561.625 L 870.756,561.792 L 870.583,561.971 L 870.432,562.144 L 870.304,562.317 L 870.187,562.507 L 870.097,562.691 L 870.03,562.88 L 869.975,563.07 L 869.941,563.26 L 869.936,563.455 L 869.936,563.455 L 869.941,563.65 L 869.975,563.84 L 870.03,564.03 L 870.097,564.219 L 870.187,564.409 L 870.304,564.593 L 870.432,564.766 L 870.583,564.945 L 870.756,565.123 L 870.94,565.285 L 871.146,565.458 L 871.37,565.614 L 871.61,565.771 L 871.872,565.916 L 872.14,566.061 L 872.43,566.195 L 872.725,566.329 L 873.027,566.446 L 873.362,566.569 L 873.691,566.675 L 874.053,566.764 L 874.405,566.853 L 874.784,566.942 L 875.158,567.004 L 875.538,567.065 L 875.923,567.127 L 876.324,567.166 L 876.726,567.199 L 877.128,567.233 L 877.53,567.238 L 877.942,567.244 L 877.942,567.244 L 878.333,567.238 L 878.74,567.233 L 879.142,567.199 L 879.549,567.166 L 879.934,567.127 L 880.319,567.065 L 880.721,567.004 L 881.084,566.942 L 881.458,566.853 L 881.82,566.764 L 882.166,566.675 L 882.512,566.569 L 882.836,566.446 L 883.143,566.329 L 883.455,566.195 L 883.734,566.061 L 884.002,565.916 L 884.259,565.771 L 884.493,565.614 L 884.716,565.458 L 884.923,565.285 L 885.118,565.123 L 885.291,564.945 L 885.442,564.766 L 885.57,564.593 L 885.682,564.409 L 885.776,564.219 L 885.849,564.03 L 885.899,563.84 L 885.927,563.65 L 885.933,563.455"/>
  </g>
  <g>
    <line style="fill: none; fill-opacity:0; stroke-width: 2; stroke: #000000" x1="865.168" y1="550.936" x2="755.297" y2="421.988"/>
    <polygon style="fill: #000000" points="750.433,416.279 760.725,420.648 755.297,421.988 753.113,427.133 "/>
    <polygon style="fill: none; fill-opacity:0; stroke-width: 2; stroke: #000000" points="750.433,416.279 760.725,420.648 755.297,421.988 753.113,427.133 "/>
  </g>
  <g>
    <path style="fill: none; fill-opacity:0; stroke-width: 0.6; stroke: #0078aa" d="M 828.179 82.3366 L 828.313,82.1748 L 828.419,81.9962 L 828.52,81.8121 L 828.615,81.6391 L 828.693,81.4438 L 828.743,81.2597 L 828.804,81.0644 L 828.843,80.8747 L 828.871,80.6794 L 828.877,80.4897 L 828.877,80.2888 L 828.871,80.0824 L 828.843,79.8983 L 828.804,79.6974 L 828.754,79.5188 L 828.693,79.3235 L 828.615,79.1394 L 828.52,78.9553 L 828.419,78.7767 L 828.313,78.6093 L 828.179,78.4308 L 828.046,78.2634 L 827.906,78.1016 L 827.744,77.9454 L 827.588,77.8003 L 827.409,77.6496 L 827.225,77.5213 L 827.03,77.3874 L 826.824,77.2758 L 826.617,77.1474 L 826.4,77.047 L 826.165,76.9466 L 825.948,76.8629 L 825.708,76.7959 L 825.462,76.7178 L 825.222,76.6564 L 824.977,76.6062 L 824.726,76.5616 L 824.475,76.5337 L 824.212,76.5169 L 823.961,76.4946 L 823.699,76.4946 L 823.453,76.5114 L 823.191,76.5169 L 822.94,76.5504 L 822.689,76.5895 L 822.432,76.6341 L 822.198,76.6899 L 821.941,76.7457 L 821.718,76.8294 L 821.478,76.9075 L 821.244,77.0024 L 821.032,77.1028 L 820.82,77.2144 L 820.608,77.326 L 820.407,77.4543 L 820.223,77.5771 L 820.05,77.7222 L 819.871,77.8728 L 819.709,78.0235 L 819.564,78.1853 L 819.419,78.3471"/>
    <path style="fill: none; fill-opacity:0; stroke-width: 0.4; stroke: #aae6ff" d="M 828.007 82.2027 L 828.113,82.0353 L 828.219,81.8791 L 828.319,81.7061 L 828.397,81.522 L 828.464,81.349 L 828.525,81.1704 L 828.581,80.9863 L 828.615,80.8133 L 828.637,80.6292 L 828.643,80.4395 L 828.643,80.2554 L 828.631,80.0712 L 828.598,79.8815 L 828.564,79.7085 L 828.514,79.5244 L 828.447,79.3459 L 828.375,79.1673 L 828.286,78.9999 L 828.196,78.8325 L 828.079,78.6707 L 827.962,78.5089 L 827.828,78.3471 L 827.688,78.1964 L 827.538,78.0514 L 827.376,77.9175 L 827.203,77.7835 L 827.024,77.6608 L 826.829,77.5269 L 826.645,77.4209 L 826.439,77.3204 L 826.227,77.22 L 826.015,77.1251 L 825.797,77.047 L 825.574,76.9745 L 825.339,76.9075 L 825.105,76.8629 L 824.865,76.8071 L 824.62,76.7736 L 824.385,76.7457 L 824.14,76.7234 L 823.889,76.7178 L 823.643,76.7178 L 823.409,76.7234 L 823.163,76.7401 L 822.923,76.7736 L 822.678,76.8071 L 822.449,76.8461 L 822.209,76.9075 L 821.975,76.9689 L 821.752,77.0414 L 821.523,77.1196 L 821.311,77.2144 L 821.104,77.3037 L 820.909,77.4209 L 820.714,77.5269 L 820.513,77.644 L 820.334,77.7724 L 820.167,77.9063 L 820.005,78.0346 L 819.849,78.1853 L 819.709,78.3304 L 819.587,78.4866"/>
    <path style="fill: #00b4ff" d="M 792.19 76.277 L 795.973,72.7116 L 824.212,72.7116 L 820.435,76.277 L 792.19,76.277z"/>
    <path style="fill: none; fill-opacity:0; stroke-width: 0.02; stroke: #aae6ff" d="M 792.19 76.277 L 795.973,72.7116 L 824.212,72.7116 L 820.435,76.277 L 792.19,76.277"/>
    <path style="fill: #0096d4" d="M 792.19 76.277 L 820.435,76.277 L 820.435,81.6168 L 792.19,81.6168 L 792.19,76.277z"/>
    <path style="fill: none; fill-opacity:0; stroke-width: 0.02; stroke: #aae6ff" d="M 792.19 76.277 L 820.435,76.277 L 820.435,81.6168 L 792.19,81.6168 L 792.19,76.277"/>
    <path style="fill: #005a80" d="M 820.435 81.6168 L 824.212,77.8393 L 824.212,72.7116 L 820.435,76.277 L 820.435,81.6168z"/>
    <path style="fill: none; fill-opacity:0; stroke-width: 0.02; stroke: #aae6ff" d="M 820.435 81.6168 L 824.212,77.8393 L 824.212,72.7116 L 820.435,76.277 L 820.435,81.6168"/>
    <path style="fill: #000000" d="M 793.094 75.6074 L 795.973,72.7116 L 823.543,72.7116 L 820.664,75.6074 L 793.094,75.6074z"/>
    <path style="fill: none; fill-opacity:0; stroke-width: 0.02; stroke: #000000" d="M 793.094 75.6074 L 795.973,72.7116 L 823.543,72.7116 L 820.664,75.6074 L 793.094,75.6074"/>
    <path style="fill: #00b4ff" d="M 792.19 52.6915 L 795.309,49.8012 L 823.543,49.8012 L 820.435,52.6915 L 792.19,52.6915z"/>
    <path style="fill: none; fill-opacity:0; stroke-width: 0.02; stroke: #aae6ff" d="M 792.19 52.6915 L 795.309,49.8012 L 823.543,49.8012 L 820.435,52.6915 L 792.19,52.6915"/>
    <path style="fill: #0096d4" d="M 792.19 52.6915 L 820.664,52.6915 L 820.664,75.1555 L 792.19,75.1555 L 792.19,52.6915z"/>
    <path style="fill: none; fill-opacity:0; stroke-width: 0.02; stroke: #aae6ff" d="M 792.19 52.6915 L 820.647,52.6915 L 820.647,75.1555 L 792.19,75.1555 L 792.19,52.6915"/>
    <path style="fill: #ffffff" d="M 794.645 55.5762 L 818.203,55.5762 L 818.203,72.9403 L 794.645,72.9403 L 794.645,55.5762z"/>
    <path style="fill: none; fill-opacity:0; stroke-width: 0.02; stroke: #003c55" d="M 794.645 55.5762 L 818.197,55.5762 L 818.197,72.9348 L 794.645,72.9348 L 794.645,55.5762"/>
    <path style="fill: #005a80" d="M 820.435 74.9435 L 823.543,71.8188 L 823.543,49.8012 L 820.435,52.6915 L 820.435,74.9435z"/>
    <path style="fill: none; fill-opacity:0; stroke-width: 0.02; stroke: #aae6ff" d="M 820.435 74.9435 L 823.543,71.8188 L 823.543,49.8012 L 820.435,52.6915 L 820.435,74.9435"/>
    <path style="fill: #00b4ff" d="M 786.644 86.0694 L 791.085,80.5009 L 821.768,80.5009 L 817.327,86.0694 L 786.644,86.0694z"/>
    <path style="fill: none; fill-opacity:0; stroke-width: 0.02; stroke: #aae6ff" d="M 786.644 86.0694 L 791.085,80.5009 L 821.768,80.5009 L 817.327,86.0694 L 786.644,86.0694"/>
    <path style="fill: #005a80" d="M 817.327 87.1798 L 821.768,82.5096 L 821.768,80.5009 L 817.327,86.0694 L 817.327,87.1798z"/>
    <path style="fill: none; fill-opacity:0; stroke-width: 0.02; stroke: #aae6ff" d="M 817.327 87.1798 L 821.768,82.5096 L 821.768,80.5009 L 817.327,86.0694 L 817.327,87.1798"/>
    <path style="fill: #0096d4" d="M 786.644 86.0694 L 817.327,86.0694 L 817.327,87.1798 L 786.644,87.1798 L 786.644,86.0694z"/>
    <path style="fill: none; fill-opacity:0; stroke-width: 0.02; stroke: #aae6ff" d="M 786.644 86.0694 L 817.327,86.0694 L 817.327,87.1798 L 786.644,87.1798 L 786.644,86.0694"/>
    <path style="fill: #00b4ff" d="M 823.543 85.3943 L 825.769,82.0632 L 829.781,82.0632 L 827.549,85.3943 L 823.543,85.3943z"/>
    <path style="fill: none; fill-opacity:0; stroke-width: 0.02; stroke: #aae6ff" d="M 823.543 85.3943 L 825.769,82.0632 L 829.781,82.0632 L 827.549,85.3943 L 823.543,85.3943"/>
    <path style="fill: #005a80" d="M 827.549 86.5102 L 829.781,84.0607 L 829.781,82.0632 L 827.549,85.3943 L 827.549,86.5102z"/>
    <path style="fill: none; fill-opacity:0; stroke-width: 0.02; stroke: #aae6ff" d="M 827.549 86.5102 L 829.781,84.0607 L 829.781,82.0632 L 827.549,85.3943 L 827.549,86.5102"/>
    <path style="fill: #0096d4" d="M 823.543 85.3943 L 827.549,85.3943 L 827.549,86.5102 L 823.543,86.5102 L 823.543,85.3943z"/>
    <path style="fill: none; fill-opacity:0; stroke-width: 0.02; stroke: #aae6ff" d="M 823.543 85.3943 L 827.549,85.3943 L 827.549,86.5102 L 823.543,86.5102 L 823.543,85.3943"/>
    <path style="fill: none; fill-opacity:0; stroke-width: 0.8; stroke: #cf0e30" d="M 815.982 64.2583 L 815.977,63.9904 L 815.938,63.7226 L 815.876,63.4492 L 815.787,63.1925 L 815.681,62.9191 L 815.547,62.6681 L 815.38,62.4002 L 815.201,62.1547 L 814.989,61.9036 L 814.76,61.6693 L 814.509,61.4294 L 814.23,61.2006 L 813.934,60.9941 L 813.628,60.7821 L 813.293,60.5868 L 812.941,60.3971 L 812.573,60.2074 L 812.182,60.0344 L 811.792,59.8782 L 811.379,59.7275 L 810.949,59.5992 L 810.52,59.4653 L 810.068,59.3537 L 809.599,59.2533 L 809.13,59.164 L 808.65,59.0859 L 808.165,59.0245 L 807.68,58.9743 L 807.194,58.9408 L 806.698,58.9241 L 806.207,58.9185 L 806.207,58.9185 L 805.716,58.9241 L 805.208,58.9408 L 804.722,58.9743 L 804.237,59.0245 L 803.746,59.0859 L 803.277,59.164 L 802.808,59.2533 L 802.351,59.3537 L 801.893,59.4653 L 801.458,59.5992 L 801.029,59.7275 L 800.61,59.8782 L 800.225,60.0344 L 799.829,60.2074 L 799.472,60.3971 L 799.109,60.5868 L 798.78,60.7821 L 798.479,60.9941 L 798.183,61.2006 L 797.904,61.4294 L 797.647,61.6693 L 797.418,61.9036 L 797.212,62.1547 L 797.028,62.4002 L 796.86,62.6681 L 796.738,62.9191 L 796.615,63.1925 L 796.531,63.4492 L 796.475,63.7226 L 796.425,63.9904 L 796.425,64.2583 L 796.425,64.2583 L 796.425,64.5317 L 796.475,64.7939 L 796.531,65.0729 L 796.615,65.3407 L 796.738,65.5974 L 796.86,65.8541 L 797.028,66.1219 L 797.212,66.3674 L 797.418,66.6129 L 797.647,66.8529 L 797.904,67.0928 L 798.183,67.316 L 798.479,67.528 L 798.78,67.7456 L 799.109,67.9353 L 799.472,68.1306 L 799.829,68.3147 L 800.225,68.4877 L 800.61,68.6384 L 801.029,68.789 L 801.458,68.9229 L 801.893,69.0513 L 802.351,69.1684 L 802.808,69.2633 L 803.277,69.3526 L 803.746,69.4363 L 804.237,69.4921 L 804.722,69.5423 L 805.208,69.5758 L 805.716,69.5925 L 806.207,69.6037 L 806.207,69.6037 L 806.698,69.5925 L 807.194,69.5758 L 807.68,69.5423 L 808.165,69.4921 L 808.65,69.4363 L 809.13,69.3526 L 809.599,69.2633 L 810.068,69.1684 L 810.52,69.0513 L 810.949,68.9229 L 811.379,68.789 L 811.792,68.6384 L 812.182,68.4877 L 812.573,68.3147 L 812.941,68.1306 L 813.293,67.9353 L 813.628,67.7456 L 813.934,67.528 L 814.23,67.316 L 814.509,67.0928 L 814.76,66.8529 L 814.989,66.6129 L 815.201,66.3674 L 815.38,66.1219 L 815.547,65.8541 L 815.681,65.5974 L 815.787,65.3407 L 815.876,65.0729 L 815.938,64.7939 L 815.977,64.5317 L 815.982,64.2583"/>
    <path style="fill: none; fill-opacity:0; stroke-width: 0.8; stroke: #cf0e30" d="M 813.985 64.2583 L 813.979,64.063 L 813.951,63.8733 L 813.901,63.6836 L 813.828,63.4939 L 813.734,63.3097 L 813.622,63.12 L 813.494,62.947 L 813.343,62.7741 L 813.17,62.5955 L 812.975,62.4281 L 812.768,62.2552 L 812.545,62.0989 L 812.311,61.9483 L 812.054,61.7976 L 811.786,61.6581 L 811.507,61.5186 L 811.195,61.3903 L 810.888,61.2731 L 810.564,61.1504 L 810.218,61.0444 L 809.872,60.9551 L 809.51,60.8602 L 809.136,60.7821 L 808.773,60.7151 L 808.371,60.6538 L 807.986,60.5924 L 807.601,60.5533 L 807.194,60.5143 L 806.792,60.492 L 806.385,60.4864 L 805.994,60.4752 L 805.994,60.4752 L 805.582,60.4864 L 805.18,60.492 L 804.778,60.5143 L 804.376,60.5533 L 803.975,60.5924 L 803.59,60.6538 L 803.21,60.7151 L 802.836,60.7821 L 802.457,60.8602 L 802.105,60.9551 L 801.743,61.0444 L 801.414,61.1504 L 801.079,61.2731 L 800.777,61.3903 L 800.482,61.5186 L 800.192,61.6581 L 799.924,61.7976 L 799.662,61.9483 L 799.422,62.0989 L 799.198,62.2552 L 798.992,62.4281 L 798.808,62.5955 L 798.635,62.7741 L 798.484,62.947 L 798.356,63.12 L 798.239,63.3097 L 798.149,63.4939 L 798.082,63.6836 L 798.027,63.8733 L 797.993,64.063 L 797.988,64.2583 L 797.988,64.2583 L 797.993,64.4536 L 798.027,64.6433 L 798.082,64.833 L 798.149,65.0227 L 798.239,65.2124 L 798.356,65.3965 L 798.484,65.5695 L 798.635,65.7481 L 798.808,65.9266 L 798.992,66.0884 L 799.198,66.2614 L 799.422,66.4176 L 799.662,66.5739 L 799.924,66.7189 L 800.192,66.864 L 800.482,66.9979 L 800.777,67.1318 L 801.079,67.249 L 801.414,67.3718 L 801.743,67.4778 L 802.105,67.5671 L 802.457,67.6563 L 802.836,67.7456 L 803.21,67.807 L 803.59,67.8684 L 803.975,67.9297 L 804.376,67.9688 L 804.778,68.0023 L 805.18,68.0358 L 805.582,68.0413 L 805.994,68.0469 L 805.994,68.0469 L 806.385,68.0413 L 806.792,68.0358 L 807.194,68.0023 L 807.601,67.9688 L 807.986,67.9297 L 808.371,67.8684 L 808.773,67.807 L 809.136,67.7456 L 809.51,67.6563 L 809.872,67.5671 L 810.218,67.4778 L 810.564,67.3718 L 810.888,67.249 L 811.195,67.1318 L 811.507,66.9979 L 811.786,66.864 L 812.054,66.7189 L 812.311,66.5739 L 812.545,66.4176 L 812.768,66.2614 L 812.975,66.0884 L 813.17,65.9266 L 813.343,65.7481 L 813.494,65.5695 L 813.622,65.3965 L 813.734,65.2124 L 813.828,65.0227 L 813.901,64.833 L 813.951,64.6433 L 813.979,64.4536 L 813.985,64.2583"/>
  </g>
  <g>
    <line style="fill: none; fill-opacity:0; stroke-width: 2; stroke: #000000" x1="801.982" y1="87.1798" x2="717.777" y2="284.11"/>
    <polygon style="fill: #000000" points="714.828,291.006 714.162,279.845 717.777,284.11 723.357,283.777 "/>
    <polygon style="fill: none; fill-opacity:0; stroke-width: 2; stroke: #000000" points="714.828,291.006 714.162,279.845 717.777,284.11 723.357,283.777 "/>
  </g>
  <text font-size="12.8" style="fill: #000000;text-anchor:start;font-family:monospace;font-style:normal;font-weight:normal" x="87.4636" y="225.862">
    <tspan x="87.4636" y="225.862">HTTP/SMTP/POP3/IMAP</tspan>
  </text>
  <text font-size="12.8" style="fill: #000000;text-anchor:start;font-family:monospace;font-style:normal;font-weight:normal" x="87.4636" y="323.096">
    <tspan x="87.4636" y="323.096">HTTP/SMTP/POP3/IMAP</tspan>
  </text>
  <text font-size="12.8" style="fill: #000000;text-anchor:start;font-family:monospace;font-style:normal;font-weight:normal" x="87.4636" y="415.26">
    <tspan x="87.4636" y="415.26">HTTP/SMTP/POP3/IMAP</tspan>
  </text>
  <text font-size="12.8" style="fill: #000000;text-anchor:start;font-family:monospace;font-style:normal;font-weight:normal" x="87.4636" y="596.614">
    <tspan x="87.4636" y="596.614">HTTP/SMTP/POP3/IMAP</tspan>
  </text>
  <text font-size="12.8" style="fill: #000000;text-anchor:start;font-family:monospace;font-style:normal;font-weight:normal" x="670.65" y="357.864">
    <tspan x="670.65" y="357.864">Internet</tspan>
  </text>
  <text font-size="12.8" style="fill: #000000;text-anchor:start;font-family:sans-serif;font-style:normal;font-weight:700" x="260.374" y="487.488">
    <tspan x="260.374" y="487.488">.</tspan>
    <tspan x="260.374" y="503.488">.</tspan>
    <tspan x="260.374" y="519.488">.</tspan>
  </text>
  <text font-size="12.8" style="fill: #000000;text-anchor:start;font-family:sans-serif;font-style:normal;font-weight:normal" x="885.724" y="76.7954">
    <tspan x="885.724" y="76.7954">.</tspan>
    <tspan x="885.724" y="92.7954">.</tspan>
    <tspan x="885.724" y="108.795">.</tspan>
  </text>
  <text font-size="12.8" style="fill: #000000;text-anchor:start;font-family:sans-serif;font-style:normal;font-weight:normal" x="931.632" y="489.288">
    <tspan x="931.632" y="489.288">.</tspan>
    <tspan x="931.632" y="505.288">.</tspan>
    <tspan x="931.632" y="521.288">.</tspan>
  </text>
  <text font-size="12.7998" style="fill: #000000;text-anchor:start;font-family:sans-serif;font-style:normal;font-weight:normal" x="407" y="294">
    <tspan x="407" y="294">Bluewhale</tspan>
  </text>
</svg>
